# Blender v2.82 (sub 7) OBJ File: 'lixeira.blend'
# www.blender.org
mtllib lixeira.mtl
o Cube
v 4.139592 6.035544 2.276171
v -4.139592 6.035544 2.276171
v 4.139592 6.035544 -1.676445
v -4.139592 6.035544 -1.676444
v -2.457462 4.789831 -2.053756
v 4.139592 4.858438 2.276171
v -4.139592 4.858438 2.276171
v 4.139592 4.858438 -1.676445
v -4.139592 4.858438 -1.676444
v 4.139592 5.027072 2.276171
v -4.139592 5.027072 2.276171
v 4.139592 5.027072 -1.676445
v -4.139592 5.027072 -1.676444
v 4.302819 5.939281 -2.472888
v 4.141793 5.939330 -2.569203
v 4.296625 6.113547 -2.481695
v 4.141793 0.890962 -2.310869
v 4.141793 0.987176 -2.410222
v 4.302819 0.987225 -2.313910
v 4.302819 0.987225 1.808955
v 4.141793 0.986398 1.905944
v 4.141793 0.890962 1.797086
v -4.141793 5.939330 -2.569203
v -4.302819 5.939281 -2.472888
v -4.309013 6.113547 -2.481695
v -4.302819 0.987225 -2.313910
v -4.141793 0.987176 -2.410222
v -4.141793 0.890962 -2.310869
v -4.141793 0.890962 1.797086
v -4.141793 0.986398 1.905944
v -4.302819 0.987225 1.808955
v 4.302819 5.939281 2.462489
v 4.230798 6.035544 2.441635
v 4.141793 5.940108 2.559696
v -4.302819 5.939281 2.462489
v -4.141793 5.940108 2.559696
v -4.230798 6.035544 2.441635
v 4.302819 5.939281 -1.972565
v 4.290586 6.113994 -1.972565
v -4.302819 5.939281 -1.972565
v -4.297103 6.114260 -1.972565
v -4.542013 9.051676 1.528106
v -4.371162 9.131386 1.516991
v -4.371162 9.131386 1.129485
v -4.542324 9.051609 0.930717
v 3.879482 9.131386 1.129485
v 4.063314 9.051611 0.930719
v 3.879482 9.131386 1.516990
v 4.063150 9.051670 1.528107
vt 0.640378 0.734622
vt 0.859622 0.734622
vt 0.868215 0.743215
vt 0.631785 0.743215
vt 0.379678 0.005448
vt 0.620322 0.004842
vt 0.624031 0.192935
vt 0.620322 0.245177
vt 0.379678 0.244572
vt 0.684453 0.150646
vt 0.934446 0.152530
vt 0.934372 0.408478
vt 0.684379 0.406595
vt 0.379638 0.754678
vt 0.620362 0.754678
vt 0.620362 0.995322
vt 0.379638 0.995322
vt 0.354551 0.858113
vt 0.015705 0.836115
vt 0.203305 0.814055
vt 0.205653 0.835348
vt 0.859622 0.645181
vt 0.859622 0.734622
vt 0.859622 0.544522
vt 0.324617 0.409111
vt 0.075415 0.415588
vt 0.075947 0.157183
vt 0.325933 0.157183
vt 0.129678 0.505596
vt 0.370322 0.505596
vt 0.370322 0.744404
vt 0.129678 0.744404
vt 0.379678 0.505428
vt 0.620322 0.504823
vt 0.620322 0.529245
vt 0.620322 0.745158
vt 0.379678 0.744552
vt 0.056301 0.337918
vt 0.056301 0.427359
vt 0.047709 0.435952
vt 0.041273 0.480361
vt 0.015340 0.709709
vt 0.015341 0.620268
vt 0.029100 0.756194
vt 0.023933 0.718302
vt 0.606918 0.449890
vt 0.396607 0.449890
vt 0.381427 0.309604
vt 0.620475 0.310660
vt 0.257925 0.039964
vt 0.328309 0.102199
vt 0.328607 0.031436
vt 0.328607 0.039452
vt 0.640378 0.734622
vt 0.640378 0.734622
vt 0.859622 0.734622
vt 0.388729 0.716482
vt 0.607973 0.716482
vt 0.607973 0.615822
vt 0.388729 0.615822
vt 0.640378 0.645181
vt 0.640378 0.544522
vt 0.665038 0.790886
vt 0.973369 0.790886
vt 0.973369 0.980986
vt 0.665038 0.980986
vt 0.859622 0.544522
vt 0.640378 0.544522
vt 0.620324 0.495322
vt 0.369058 0.501855
vt 0.370322 0.500000
vt 0.375000 0.505419
vt 0.379638 0.750000
vt 0.375000 0.744404
vt 0.620324 0.254678
vt 0.369058 0.251855
vt 0.379676 0.250000
vt 0.375000 0.244404
vt 0.129678 0.750000
vt 0.125000 0.745094
vt 0.625000 0.743651
vt 0.620362 0.750000
vt 0.620362 0.000000
vt 0.625000 0.006349
vt 0.125000 0.505419
vt 0.129678 0.500000
vt 0.379676 0.495322
vt 0.619710 1.000000
vt 0.379066 1.000000
vt 0.379676 0.254678
vt 0.870322 0.750000
vt 0.629678 0.750000
vt 0.025965 0.456472
vt 0.032401 0.412063
vt 0.020938 0.414006
vt 0.020938 0.198093
vt 0.370322 0.750000
vt 0.094569 0.131501
vt 0.009746 0.056499
vt 0.093372 0.054277
vt 0.094606 0.036890
vt 0.132767 0.018854
vt 0.232399 0.128685
vt 0.230886 0.029550
vt 0.230886 0.020013
vt 0.343570 0.392686
vt 0.348737 0.430578
vt 0.354065 0.150795
vt 0.350355 0.394135
vt 0.928140 0.442459
vt 0.928140 0.423628
vt 0.933296 0.418472
vt 0.933296 0.442999
vt 0.928140 0.421774
vt 0.688453 0.421774
vt 0.683296 0.416617
vt 0.933112 0.416617
vt 0.682889 0.419919
vt 0.682889 0.438750
vt 0.677732 0.443789
vt 0.677732 0.414763
vt 0.932488 0.451248
vt 0.682502 0.451248
vt 0.687651 0.446092
vt 0.927338 0.446092
vt 0.686598 0.425483
vt 0.926285 0.425483
vt 0.926285 0.444314
vt 0.686598 0.444314
vn 0.0000 1.0000 0.0000
vn -1.0000 0.0000 0.0000
vn -0.0000 0.7578 -0.6525
vn 0.0000 -0.1308 0.9914
vn 0.9974 0.0717 0.0056
vn 1.0000 0.0000 0.0000
vn -0.0000 -0.7660 0.6428
vn 0.0000 -1.0000 0.0000
vn -0.3048 0.9524 0.0068
vn 0.2986 0.9544 0.0066
vn 0.0000 0.9665 0.2565
vn -0.9955 -0.0940 0.0111
vn 0.0000 0.0000 1.0000
vn 0.0000 0.0000 -1.0000
vn 0.5132 -0.0251 -0.8579
vn 0.3843 -0.6632 -0.6422
vn 0.3721 -0.6979 0.6119
vn -0.5123 -0.0615 -0.8566
vn -0.3843 -0.6632 -0.6422
vn -0.3721 -0.6979 0.6119
vn 0.4502 0.4975 0.7415
vn -0.4502 0.4975 0.7415
vn -0.5131 -0.8583 0.0000
vn 0.0000 -0.7184 -0.6957
vn 0.5131 -0.0275 -0.8579
vn -0.5131 -0.1123 0.8509
vn 0.5131 -0.1123 0.8509
vn -0.5131 -0.0275 -0.8579
vn 0.0000 0.7777 0.6286
vn 0.9547 0.2975 0.0091
vn 0.0000 -0.7519 0.6592
vn -0.9999 -0.0011 0.0118
vn 0.0000 0.4488 -0.8936
vn 0.5131 -0.8583 0.0000
vn 0.9986 0.0529 0.0060
vn -0.9611 0.2762 0.0097
vn 0.0000 -0.0321 -0.9995
vn -0.4227 0.9063 0.0001
vn -0.0000 0.9280 -0.3725
vn 0.3981 0.9173 0.0000
vn 0.0000 0.1381 0.9904
usemtl Material
s off
f 1/1/1 2/2/1 37/3/1 33/4/1
f 31/5/2 35/6/2 40/7/2 24/8/2 26/9/2
f 16/10/3 25/11/3 45/12/3 47/13/3
f 21/14/4 34/15/4 36/16/4 30/17/4
f 39/18/5 16/19/5 47/20/5 49/21/5
f 4/22/6 2/2/6 7/23/6 9/24/6
f 41/25/7 39/26/7 49/27/7 42/28/7
f 28/29/8 17/30/8 22/31/8 29/32/8
f 19/33/6 14/34/6 38/35/6 32/36/6 20/37/6
f 3/38/9 1/39/9 33/40/9 39/41/9
f 2/42/10 4/43/10 41/44/10 37/45/10
f 4/46/11 3/47/11 39/48/11 41/49/11
f 25/50/12 41/51/12 42/52/12 45/53/12
f 7/23/13 6/54/13 10/55/13 11/56/13
f 2/2/14 1/1/14 6/54/14 7/23/14
f 3/57/13 4/58/13 9/59/13 8/60/13
f 1/1/2 3/61/2 8/62/2 6/54/2
f 12/63/1 13/64/1 11/65/1 10/66/1
f 8/62/14 9/24/14 13/67/14 12/68/14
f 6/54/6 8/62/6 12/68/6 10/55/6
f 9/24/2 7/23/2 11/56/2 13/67/2
f 14/34/15 15/69/15 16/70/15
f 17/30/16 18/71/16 19/72/16
f 20/37/17 21/73/17 22/74/17
f 23/75/18 24/8/18 25/76/18
f 26/9/19 27/77/19 28/78/19
f 29/32/20 30/79/20 31/80/20
f 32/36/21 33/81/21 34/82/21
f 35/6/22 36/83/22 37/84/22
f 28/29/23 29/32/23 31/80/23 26/85/23
f 17/30/24 28/29/24 27/86/24 18/71/24
f 14/34/25 19/33/25 18/87/25 15/69/25
f 30/17/26 36/16/26 35/88/26 31/89/26
f 34/15/27 21/14/27 20/37/27 32/36/27
f 23/75/28 27/90/28 26/9/28 24/8/28
f 33/4/29 37/3/29 36/91/29 34/92/29
f 39/93/30 33/94/30 32/95/30 38/96/30
f 29/32/31 22/31/31 21/97/31 30/79/31
f 41/98/32 25/99/32 24/100/32 40/101/32
f 25/76/33 16/70/33 15/69/33 23/75/33
f 22/31/34 17/30/34 19/33/34 20/37/34
f 16/102/35 39/103/35 38/104/35 14/105/35
f 37/106/36 41/107/36 40/108/36 35/109/36
f 27/90/37 23/75/37 15/69/37 18/87/37
f 43/110/38 44/111/38 45/112/38 42/113/38
f 44/114/39 46/115/39 47/116/39 45/117/39
f 46/118/40 48/119/40 49/120/40 47/121/40
f 42/122/41 49/123/41 48/124/41 43/125/41
f 46/126/1 44/127/1 43/128/1 48/129/1
