# Blender v2.82 (sub 7) OBJ File: 'placaFlutuante.blend'
# www.blender.org
mtllib PlacasFlutuantes2.mtl
o Cube.003
v 34.123249 32.588039 1.388498
v 35.923607 16.170025 -1.236938
v 34.138199 32.473804 2.122293
v 35.938557 16.055790 -0.503143
v 20.483559 25.327221 0.503143
v 23.658619 13.039159 -1.474495
v 20.498507 25.212986 1.236938
v 23.673567 12.924924 -0.740700
v 26.784336 13.837056 -1.413954
v 23.181866 28.690262 1.814245
v 26.799284 13.722822 -0.680159
v 23.166916 28.804497 1.080449
v 37.669987 19.198341 -0.909794
v 23.042507 15.367240 -0.347634
v 37.684933 19.084106 -0.175998
v 23.027559 15.481475 -1.081430
v 26.153276 16.279373 -1.020888
v 26.168224 16.165138 -0.287093
vt 0.902172 0.768105
vt 0.951078 0.768105
vt 0.949049 0.953919
vt 0.899128 0.961021
vt 0.144135 0.451675
vt 0.488525 0.445377
vt 0.412244 0.568433
vt 0.140157 0.555277
vt 0.603387 0.374156
vt 0.757147 0.378214
vt 0.759176 0.576203
vt 0.605416 0.576203
vt 0.424279 0.768105
vt 0.567275 0.768105
vt 0.574377 0.958992
vt 0.424279 0.960006
vt 0.605416 0.768105
vt 0.759176 0.768105
vt 0.761205 0.967108
vt 0.613533 0.961021
vt 0.605416 0.625109
vt 0.759176 0.625109
vt 0.375373 0.768105
vt 0.376388 0.944788
vt 0.151910 0.127650
vt 0.492987 0.133738
vt 0.487914 0.450510
vt 0.143794 0.449496
vt 0.046018 0.194792
vt 0.156469 0.124378
vt 0.148352 0.447158
vt 0.052567 0.449733
vt 0.567275 0.576203
vt 0.567275 0.625109
vt 0.568289 0.369083
vt 0.053636 0.449961
vt 0.143775 0.449961
vt 0.141746 0.555393
vt 0.054651 0.550320
vn -0.7956 0.5959 0.1090
vn 0.0096 -0.1603 0.9870
vn -0.9688 -0.2473 -0.0188
vn 0.2472 -0.9567 -0.1540
vn 0.9673 0.2529 0.0197
vn -0.0293 0.1601 -0.9867
vn -0.0096 0.1603 -0.9870
vn 0.0293 -0.1601 0.9867
vn -0.3264 0.9329 0.1519
vn 0.0204 -0.1346 0.9907
vn -0.0201 0.1538 -0.9879
vn -0.0204 0.1346 -0.9907
vn 0.8668 -0.4897 -0.0939
vn 0.0201 -0.1538 0.9879
usemtl Material.003
s off
f 12/1/1 5/2/1 7/3/1 10/4/1
f 18/5/2 10/6/2 7/7/2 14/8/2
f 14/9/3 7/10/3 5/11/3 16/12/3
f 9/13/4 2/14/4 4/15/4 11/16/4
f 13/17/5 1/18/5 3/19/5 15/20/5
f 17/21/6 12/22/6 1/18/6 13/17/6
f 16/12/7 5/11/7 12/22/7 17/21/7
f 6/23/4 9/13/4 11/16/4 8/24/4
f 15/25/8 3/26/8 10/27/8 18/28/8
f 1/18/9 12/1/9 10/4/9 3/19/9
f 4/29/10 15/30/10 18/31/10 11/32/10
f 6/33/11 16/12/11 17/21/11 9/34/11
f 9/34/12 17/21/12 13/17/12 2/14/12
f 2/14/13 13/17/13 15/20/13 4/15/13
f 8/35/3 14/9/3 16/12/3 6/33/3
f 11/36/14 18/37/14 14/38/14 8/39/14
