# Blender v2.82 (sub 7) OBJ File: 'placaFlutuante.blend'
# www.blender.org
mtllib placaFlutuanteG.mtl
o Cube.005_Cube.008
v -59.015854 29.555931 -0.608904
v -65.274719 13.326914 -0.730233
v -58.980370 29.536381 0.175667
v -65.239235 13.307364 0.054338
v -69.346298 32.893669 -0.058517
v -75.173996 17.782660 -0.171487
v -69.310814 32.874119 0.726054
v -75.138512 17.763109 0.613083
v -67.524658 35.096409 0.700647
v -75.306816 14.917543 0.549789
v -67.560143 35.115959 -0.083924
v -75.342300 14.937094 -0.234782
v -59.119247 31.858232 0.239804
v -66.936897 11.698917 -0.695624
v -66.901413 11.679367 0.088946
v -59.154732 31.877783 -0.544766
v -68.137474 11.384799 0.137510
v -59.484997 33.931923 -0.478644
v -59.449512 33.912373 0.305927
v -68.172958 11.404349 -0.647061
v -74.600693 13.874749 0.491868
v -65.948219 36.421871 -0.124285
v -65.912735 36.402321 0.660285
v -74.636177 13.894300 -0.292702
v -63.286865 37.446068 0.567533
v -72.700439 13.148559 -0.398833
v -72.664963 13.129008 0.385738
v -63.322350 37.465622 -0.217037
v -60.541538 36.388435 0.417015
v -69.955116 12.090923 -0.549351
v -69.919632 12.071373 0.235220
v -60.577023 36.407986 -0.367555
v -58.981087 40.546181 -0.336617
v -61.726418 41.603817 -0.186100
v -61.690933 41.584267 0.598471
v -58.945606 40.526634 0.447953
v -57.959888 41.181915 -0.563243
v -62.075195 42.767334 -0.337613
v -62.022003 42.738026 0.838475
v -57.906700 41.152607 0.612846
v -57.088169 43.286949 -0.565363
v -61.309208 44.913101 -0.333936
v -61.254654 44.883041 0.872369
v -57.033611 43.256889 0.640942
vt 0.694121 0.308689
vt 0.697658 0.423909
vt 0.824196 0.438764
vt 0.824196 0.308689
vt 0.417562 0.565700
vt 0.440562 0.511064
vt 0.441765 0.184072
vt 0.419169 0.129042
vt 0.694121 0.568839
vt 0.694121 0.698914
vt 0.824196 0.698914
vt 0.824196 0.568839
vt 0.694121 0.817408
vt 0.694121 0.828989
vt 0.824196 0.828989
vt 0.824196 0.817408
vt 0.683719 0.568839
vt 0.683719 0.698914
vt 0.942691 0.568839
vt 0.942691 0.698914
vt 0.954271 0.698914
vt 0.954271 0.568839
vt 0.834599 0.698914
vt 0.834599 0.568839
vt 0.671310 0.568839
vt 0.671310 0.698914
vt 0.694121 0.709317
vt 0.824196 0.709317
vt 0.390235 0.601768
vt 0.392028 0.114286
vt 0.158989 0.505844
vt 0.180674 0.563654
vt 0.182281 0.126997
vt 0.156744 0.169513
vt 0.567583 0.553984
vt 0.564046 0.698914
vt 0.575627 0.698914
vt 0.575627 0.568839
vt 0.930123 0.568839
vt 0.930123 0.698914
vt 0.694121 0.804841
vt 0.824196 0.804841
vt 0.694121 0.781923
vt 0.824196 0.781923
vt 0.907205 0.568839
vt 0.907205 0.698914
vt 0.208083 0.600195
vt 0.209877 0.112713
vt 0.588194 0.698914
vt 0.588194 0.568839
vt 0.847008 0.698914
vt 0.847008 0.568839
vt 0.694121 0.721725
vt 0.824196 0.721725
vt 0.335537 0.640020
vt 0.337474 0.113815
vt 0.646417 0.568839
vt 0.646417 0.698914
vt 0.258166 0.639352
vt 0.256852 0.816584
vt 0.334223 0.817253
vt 0.260103 0.113147
vt 0.871901 0.698914
vt 0.871901 0.568839
vt 0.694121 0.746618
vt 0.824196 0.746618
vt 0.611113 0.698914
vt 0.611113 0.568839
vt 0.611113 0.698914
vt 0.611113 0.698914
vt 0.597121 0.579234
vt 0.610127 0.656524
vt 0.645432 0.656524
vt 0.646417 0.698914
vt 0.694121 0.746618
vt 0.694121 0.781923
vt 0.224133 0.849786
vt 0.223655 0.881298
vt 0.365276 0.881241
vt 0.365485 0.849702
vt 0.657797 0.578149
vt 0.646417 0.698914
vt 0.694121 0.746618
vt 0.694121 0.781923
vt 0.598305 0.564012
vt 0.611113 0.698914
vt 0.646417 0.698914
vt 0.656269 0.562928
vt 0.694121 0.746618
vt 0.694121 0.781923
vn 0.9319 -0.3590 -0.0511
vn 0.0452 -0.0249 0.9987
vn -0.9319 0.3590 0.0511
vn -0.0452 0.0249 -0.9987
vn -0.7782 0.6260 0.0508
vn 0.6983 -0.7141 -0.0494
vn -0.9972 0.0579 0.0465
vn -0.6281 0.7767 0.0478
vn 0.9972 0.0609 -0.0436
vn 0.2304 -0.9725 -0.0347
vn -0.3598 -0.9330 -0.0070
vn 0.9863 0.1599 -0.0406
vn -0.8272 -0.5614 0.0234
vn -0.3679 0.9290 0.0398
vn 0.9140 0.4045 -0.0313
vn 0.5208 -0.8525 -0.0448
vn 0.0428 -0.0311 0.9986
vn -0.9585 -0.2826 0.0363
vn -0.0278 -0.2112 0.9770
vn -0.1163 -0.1625 -0.9798
vn 0.3598 0.9330 0.0070
vn -0.0476 0.0187 -0.9987
vn 0.9227 -0.3821 -0.0513
vn -0.9406 0.3357 0.0509
usemtl Material.008
s off
f 1/1/1 3/2/1 4/3/1 2/4/1
f 9/5/2 7/6/2 8/7/2 10/8/2
f 7/9/3 5/10/3 6/11/3 8/12/3
f 16/13/4 1/14/4 2/15/4 14/16/4
f 9/17/5 11/18/5 5/10/5 7/9/5
f 15/19/6 14/20/6 2/21/6 4/22/6
f 8/12/7 6/11/7 12/23/7 10/24/7
f 23/25/8 22/26/8 11/18/8 9/17/8
f 5/10/4 11/27/4 12/28/4 6/11/4
f 23/29/2 9/5/2 10/8/2 21/30/2
f 3/31/2 13/32/2 15/33/2 4/34/2
f 3/35/9 1/36/9 16/37/9 13/38/9
f 17/39/10 20/40/10 14/20/10 15/19/10
f 18/41/4 16/13/4 14/16/4 20/42/4
f 32/43/4 18/41/4 20/42/4 30/44/4
f 31/45/11 30/46/11 20/40/11 17/39/11
f 13/32/2 19/47/2 17/48/2 15/33/2
f 13/38/12 16/37/12 18/49/12 19/50/12
f 10/24/13 12/23/13 24/51/13 21/52/13
f 11/27/4 22/53/4 24/54/4 12/28/4
f 25/55/2 23/29/2 21/30/2 27/56/2
f 25/57/14 28/58/14 22/26/14 23/25/14
f 29/59/2 36/60/2 35/61/2 25/55/2
f 29/59/2 25/55/2 27/56/2 31/62/2
f 21/52/11 24/51/11 26/63/11 27/64/11
f 22/53/4 28/65/4 26/66/4 24/54/4
f 19/47/2 29/59/2 31/62/2 17/48/2
f 19/50/15 18/49/15 32/67/15 29/68/15
f 27/64/11 26/63/11 30/46/11 31/45/11
f 28/65/4 32/43/4 30/44/4 26/66/4
f 33/69/16 37/70/16 40/71/16 36/72/16
f 25/57/3 35/73/3 34/74/3 28/58/3
f 32/67/1 33/69/1 36/72/1 29/68/1
f 28/65/4 34/75/4 33/76/4 32/43/4
f 40/77/17 44/78/17 43/79/17 39/80/17
f 35/73/18 39/81/18 38/82/18 34/74/18
f 36/60/19 40/77/19 39/80/19 35/61/19
f 34/75/20 38/83/20 37/84/20 33/76/20
f 44/85/21 41/86/21 42/87/21 43/88/21
f 38/83/22 42/89/22 41/90/22 37/84/22
f 37/70/23 41/86/23 44/85/23 40/71/23
f 39/81/24 43/88/24 42/87/24 38/82/24
