# Blender v2.82 (sub 7) OBJ File: 'placaFlutuante.blend'
# www.blender.org
mtllib placaFlutuanteG2.mtl
o Cube.001_Cube.007
v -40.392719 32.508007 -0.608904
v -32.853783 16.832584 -0.730233
v -40.354172 32.520473 0.175667
v -32.815235 16.845051 0.054338
v -49.899853 27.266529 -0.058517
v -42.880264 12.670979 -0.171487
v -49.861305 27.278996 0.726054
v -42.841717 12.683445 0.613083
v -50.257309 30.102489 0.700647
v -40.883530 10.611955 0.549789
v -50.295856 30.090023 -0.083924
v -40.922077 10.599488 -0.234782
v -42.141132 34.009449 0.239804
v -32.805901 14.506450 -0.695625
v -32.767357 14.518916 0.088946
v -42.179680 33.996983 -0.544766
v -33.399261 13.416501 0.137510
v -43.902645 35.163158 -0.478644
v -43.864098 35.175625 0.305927
v -33.437809 13.404035 -0.647061
v -39.640083 10.412297 0.491868
v -50.143463 32.158955 -0.124285
v -50.104919 32.171421 0.660285
v -39.678631 10.399831 -0.292703
v -49.067070 34.799625 0.567533
v -37.809502 11.299591 -0.398833
v -37.770954 11.312057 0.385738
v -49.105614 34.787159 -0.217037
v -46.416206 36.075695 0.417015
v -35.158642 12.575661 -0.549351
v -35.120094 12.588127 0.235220
v -46.454754 36.063229 -0.367555
v -48.377090 40.060265 -0.336617
v -51.027950 38.784195 -0.186100
v -50.989403 38.796661 0.598471
v -48.338543 40.072731 0.447953
v -48.140930 41.239773 -0.563243
v -52.114628 39.326916 -0.337613
v -52.056847 39.345604 0.838475
v -48.083145 41.258461 0.612846
v -49.077774 43.316643 -0.565363
v -53.153564 41.354641 -0.333936
v -53.094299 41.373810 0.872369
v -49.018505 43.335812 0.640942
vt 0.694121 0.308689
vt 0.697658 0.423909
vt 0.824196 0.438764
vt 0.824196 0.308689
vt 0.173040 0.565700
vt 0.149593 0.511064
vt 0.148366 0.184072
vt 0.171402 0.129042
vt 0.694121 0.568839
vt 0.694121 0.698914
vt 0.824196 0.698914
vt 0.824196 0.568839
vt 0.694121 0.817408
vt 0.694121 0.828989
vt 0.824196 0.828989
vt 0.824196 0.817408
vt 0.683719 0.568839
vt 0.683719 0.698914
vt 0.942691 0.568839
vt 0.942691 0.698914
vt 0.954271 0.698914
vt 0.954271 0.568839
vt 0.834599 0.698914
vt 0.834599 0.568839
vt 0.671310 0.568839
vt 0.671310 0.698914
vt 0.694121 0.709317
vt 0.824196 0.709317
vt 0.200899 0.601768
vt 0.199070 0.114286
vt 0.436640 0.505844
vt 0.414533 0.563654
vt 0.412895 0.126997
vt 0.438928 0.169513
vt 0.567583 0.553984
vt 0.564046 0.698914
vt 0.575627 0.698914
vt 0.575627 0.568839
vt 0.930123 0.568839
vt 0.930123 0.698914
vt 0.694121 0.804841
vt 0.824196 0.804841
vt 0.694121 0.781923
vt 0.824196 0.781923
vt 0.907205 0.568839
vt 0.907205 0.698914
vt 0.386592 0.600195
vt 0.384763 0.112713
vt 0.588194 0.698914
vt 0.588194 0.568839
vt 0.847008 0.698914
vt 0.847008 0.568839
vt 0.694121 0.721725
vt 0.824196 0.721725
vt 0.256659 0.640020
vt 0.254685 0.113815
vt 0.646417 0.568839
vt 0.646417 0.698914
vt 0.335534 0.639352
vt 0.336875 0.816584
vt 0.258000 0.817253
vt 0.333560 0.113147
vt 0.871901 0.698914
vt 0.871901 0.568839
vt 0.694121 0.746618
vt 0.824196 0.746618
vt 0.611113 0.698914
vt 0.611113 0.568839
vt 0.611113 0.698914
vt 0.611113 0.698914
vt 0.597121 0.579234
vt 0.610127 0.656524
vt 0.645432 0.656524
vt 0.646417 0.698914
vt 0.694121 0.746618
vt 0.694121 0.781923
vt 0.370229 0.849786
vt 0.370717 0.881298
vt 0.226343 0.881241
vt 0.226129 0.849702
vt 0.657797 0.578149
vt 0.646417 0.698914
vt 0.694121 0.746618
vt 0.694121 0.781923
vt 0.598305 0.564012
vt 0.611113 0.698914
vt 0.646417 0.698914
vt 0.656269 0.562928
vt 0.694121 0.746618
vt 0.694121 0.781923
vn 0.8999 0.4332 -0.0511
vn 0.0491 0.0159 0.9987
vn -0.8999 -0.4332 0.0511
vn -0.0491 -0.0159 -0.9987
vn -0.9891 -0.1383 0.0508
vn 0.9986 0.0198 -0.0494
vn -0.7252 -0.6870 0.0465
vn -0.9961 0.0743 0.0478
vn 0.6386 0.7683 -0.0436
vn 0.8664 -0.4981 -0.0346
vn 0.4334 -0.9012 -0.0070
vn 0.5590 0.8282 -0.0406
vn -0.1574 -0.9873 0.0234
vn -0.9289 0.3682 0.0398
vn 0.3312 0.9430 -0.0313
vn 0.9779 -0.2044 -0.0448
vn 0.0519 0.0099 0.9986
vn -0.4506 -0.8920 0.0363
vn 0.1349 -0.1649 0.9770
vn 0.0387 -0.1960 -0.9798
vn -0.4334 0.9012 0.0070
vn -0.0462 -0.0219 -0.9987
vn 0.9104 0.4106 -0.0513
vn -0.8888 -0.4555 0.0509
usemtl Material.007
s off
f 1/1/1 3/2/1 4/3/1 2/4/1
f 9/5/2 7/6/2 8/7/2 10/8/2
f 7/9/3 5/10/3 6/11/3 8/12/3
f 16/13/4 1/14/4 2/15/4 14/16/4
f 9/17/5 11/18/5 5/10/5 7/9/5
f 15/19/6 14/20/6 2/21/6 4/22/6
f 8/12/7 6/11/7 12/23/7 10/24/7
f 23/25/8 22/26/8 11/18/8 9/17/8
f 5/10/4 11/27/4 12/28/4 6/11/4
f 23/29/2 9/5/2 10/8/2 21/30/2
f 3/31/2 13/32/2 15/33/2 4/34/2
f 3/35/9 1/36/9 16/37/9 13/38/9
f 17/39/10 20/40/10 14/20/10 15/19/10
f 18/41/4 16/13/4 14/16/4 20/42/4
f 32/43/4 18/41/4 20/42/4 30/44/4
f 31/45/11 30/46/11 20/40/11 17/39/11
f 13/32/2 19/47/2 17/48/2 15/33/2
f 13/38/12 16/37/12 18/49/12 19/50/12
f 10/24/13 12/23/13 24/51/13 21/52/13
f 11/27/4 22/53/4 24/54/4 12/28/4
f 25/55/2 23/29/2 21/30/2 27/56/2
f 25/57/14 28/58/14 22/26/14 23/25/14
f 29/59/2 36/60/2 35/61/2 25/55/2
f 29/59/2 25/55/2 27/56/2 31/62/2
f 21/52/11 24/51/11 26/63/11 27/64/11
f 22/53/4 28/65/4 26/66/4 24/54/4
f 19/47/2 29/59/2 31/62/2 17/48/2
f 19/50/15 18/49/15 32/67/15 29/68/15
f 27/64/11 26/63/11 30/46/11 31/45/11
f 28/65/4 32/43/4 30/44/4 26/66/4
f 33/69/16 37/70/16 40/71/16 36/72/16
f 25/57/3 35/73/3 34/74/3 28/58/3
f 32/67/1 33/69/1 36/72/1 29/68/1
f 28/65/4 34/75/4 33/76/4 32/43/4
f 40/77/17 44/78/17 43/79/17 39/80/17
f 35/73/18 39/81/18 38/82/18 34/74/18
f 36/60/19 40/77/19 39/80/19 35/61/19
f 34/75/20 38/83/20 37/84/20 33/76/20
f 44/85/21 41/86/21 42/87/21 43/88/21
f 38/83/22 42/89/22 41/90/22 37/84/22
f 37/70/23 41/86/23 44/85/23 40/71/23
f 39/81/24 43/88/24 42/87/24 38/82/24
