# Blender v2.82 (sub 7) OBJ File: 'maquinasalgado.blend'
# www.blender.org
mtllib vendingMachine.mtl
o Cube_Cube.001
v -0.815509 0.267709 1.728851
v -0.815509 5.957427 1.728851
v -0.815509 0.267709 -1.728851
v -0.815509 5.957427 -1.728851
v 0.815509 0.267709 1.728851
v 0.815509 5.957427 1.728851
v 0.815509 0.267709 -1.728851
v 0.815509 5.957427 -1.728851
v -0.815509 5.556229 1.728851
v -0.815509 5.556229 -1.728851
v 0.815509 5.556229 -1.728851
v 0.815509 5.556229 1.728851
v -0.815509 0.901356 -1.728851
v 0.815509 0.901356 -1.728851
v 0.815509 0.901356 1.728851
v -0.815509 0.901356 1.728851
v -0.815509 0.267709 -1.148596
v -0.815509 5.957427 -1.148596
v 0.815509 0.267709 -1.148596
v 0.815509 5.957427 -1.148596
v 0.815509 5.556229 -1.148596
v -0.815509 5.556229 -1.148596
v -0.815509 0.901356 -1.148596
v 0.815509 0.901356 -1.148596
v -0.815509 0.267709 1.555864
v 0.815509 5.957427 1.555864
v 0.815509 5.556229 1.555864
v 0.815509 0.901356 1.555864
v -0.815509 5.957427 1.555864
v 0.815509 0.267709 1.555864
v -0.815509 5.556229 1.555864
v -0.815509 0.901356 1.555864
v -0.709525 5.556229 1.555864
v -0.709525 5.556229 -1.148596
v -0.709525 0.901356 1.555864
v -0.709525 0.901356 -1.148596
v -0.815509 3.985542 -1.148596
v -0.815509 3.997246 -1.728851
v -0.815509 3.209044 -1.148596
v -0.815509 3.205961 -1.728851
v -0.880779 3.985542 -1.148596
v -0.880779 3.997246 -1.728851
v -0.880779 3.209044 -1.148596
v -0.880779 3.205961 -1.728851
v -0.815509 3.425604 1.148215
v -0.709525 3.424797 1.148215
v -0.815509 2.874295 1.148215
v -0.709525 2.862906 1.148215
v -0.815509 2.378035 1.555864
v -0.709525 2.376692 1.555864
v -0.709525 3.946229 1.555864
v -0.815509 3.944444 1.555864
vt 0.401957 0.017983
vt 0.401952 0.006303
vt 0.374154 0.006314
vt 0.374159 0.017994
vt 0.607372 0.250000
vt 0.625000 0.250000
vt 0.625000 0.500000
vt 0.607372 0.500000
vt 0.607372 0.737493
vt 0.625000 0.737493
vt 0.625000 0.750000
vt 0.607372 0.750000
vt 0.625000 1.000000
vt 0.607372 1.000000
vt 0.125000 0.737493
vt 0.375000 0.737493
vt 0.375000 0.750000
vt 0.125000 0.750000
vt 0.875000 0.737493
vt 0.875000 0.750000
vt 0.618925 0.722987
vt 0.618924 0.998231
vt 0.441706 0.998229
vt 0.441707 0.722985
vt 0.402842 0.737493
vt 0.402842 0.750000
vt 0.402842 0.250000
vt 0.504104 0.250000
vt 0.538872 0.250000
vt 0.402842 0.500000
vt 0.402013 0.153502
vt 0.401985 0.086318
vt 0.374187 0.086419
vt 0.374214 0.153514
vt 0.402020 0.171950
vt 0.374222 0.171961
vt 0.375000 0.250000
vt 0.375000 0.500000
vt 0.402842 1.000000
vt 0.375000 1.000000
vt 0.402842 0.541954
vt 0.375000 0.541954
vt 0.421630 0.270529
vt 0.449472 0.270529
vt 0.449472 0.466068
vt 0.421630 0.466068
vt 0.607372 0.012507
vt 0.607372 0.208046
vt 0.607372 0.208046
vt 0.607372 0.012507
vt 0.607372 0.541954
vt 0.875000 0.500000
vt 0.875000 0.541954
vt 0.625000 0.541954
vt 0.125000 0.500000
vt 0.125000 0.541954
vt 0.548307 0.301616
vt 0.565935 0.301616
vt 0.565935 0.497155
vt 0.548307 0.497155
vt 0.621790 0.218043
vt 0.621680 0.235671
vt 0.609172 0.235593
vt 0.609282 0.217965
vt 0.624361 0.012865
vt 0.622186 0.217384
vt 0.609679 0.217251
vt 0.610549 0.135435
vt 0.610674 0.123639
vt 0.610932 0.099416
vt 0.611057 0.087621
vt 0.611854 0.012732
vt 0.624175 0.071808
vt 0.623506 0.099642
vt 0.611002 0.099341
vt 0.611671 0.071508
vt 0.041702 0.046401
vt 0.041702 0.137135
vt 0.063827 0.167038
vt 0.063827 0.201595
vt 0.041702 0.233664
vt 0.041702 0.332680
vt 0.188482 0.332680
vt 0.188482 0.046401
vt 0.402842 0.012507
vt 0.477734 0.012507
vt 0.477675 0.012507
vt 0.402842 0.012507
vt 0.397160 0.978055
vt 0.397161 0.753344
vt 0.397161 0.642258
vt 0.397161 0.312113
vt 0.450054 0.312113
vt 0.450054 0.978055
vt 0.402842 0.208046
vt 0.402842 0.208046
vt 0.032835 0.789977
vt 0.175191 0.790663
vt 0.175190 0.963029
vt 0.032834 0.965626
vt 0.374177 0.063382
vt 0.401976 0.063711
vt 0.504239 0.208046
vt 0.504239 0.208046
vt 0.504104 0.250000
vt 0.528533 0.516774
vt 0.528533 0.688761
vt 0.478101 0.688761
vt 0.478101 0.516774
vt 0.538872 0.250000
vt 0.538357 0.208046
vt 0.538357 0.208046
vt 0.513719 0.012507
vt 0.513754 0.012507
vt 0.525552 0.012507
vt 0.525630 0.012507
vt 0.489030 0.012507
vt 0.489531 0.012507
vn -1.0000 0.0000 0.0000
vn 0.0000 0.0000 -1.0000
vn 1.0000 0.0000 0.0000
vn 0.0000 0.0000 1.0000
vn 0.0000 -1.0000 0.0000
vn 0.0000 1.0000 0.0000
vn 0.0000 -1.0000 0.0053
vn 0.0000 0.9998 0.0202
vn -0.0028 0.6169 -0.7871
vn -0.0383 -0.6381 -0.7690
usemtl Material.001
s off
f 22/1/1 18/2/1 4/3/1 10/4/1
f 10/5/2 4/6/2 8/7/2 11/8/2
f 27/9/3 26/10/3 6/11/3 12/12/3
f 12/12/4 6/11/4 2/13/4 9/14/4
f 25/15/5 30/16/5 5/17/5 1/18/5
f 26/10/6 29/19/6 2/20/6 6/11/6
f 15/21/4 12/22/4 9/23/4 16/24/4
f 28/25/3 27/9/3 12/12/3 15/26/3
f 13/27/2 40/28/2 38/29/2 10/5/2 11/8/2 14/30/2
f 23/31/1 39/32/1 40/33/1 13/34/1
f 17/35/1 23/31/1 13/34/1 3/36/1
f 3/37/2 13/27/2 14/30/2 7/38/2
f 30/16/3 28/25/3 15/26/3 5/17/3
f 5/17/4 15/26/4 16/39/4 1/40/4
f 7/38/3 14/30/3 24/41/3 19/42/3
f 25/43/1 32/44/1 23/45/1 17/46/1
f 31/47/5 22/48/5 34/49/5 33/50/5
f 14/30/3 11/8/3 21/51/3 24/41/3
f 8/7/6 4/52/6 18/53/6 20/54/6
f 3/55/5 7/38/5 19/42/5 17/56/5
f 11/8/3 8/7/3 20/54/3 21/51/3
f 31/57/1 29/58/1 18/59/1 22/60/1
f 9/61/1 2/62/1 29/63/1 31/64/1
f 16/65/1 9/66/1 31/67/1 52/68/1 45/69/1 47/70/1 49/71/1 32/72/1
f 1/73/1 16/74/1 32/75/1 25/76/1
f 19/42/3 24/41/3 28/25/3 30/16/3
f 24/41/3 21/51/3 27/9/3 28/25/3
f 20/54/6 18/53/6 29/19/6 26/10/6
f 17/56/5 19/42/5 30/16/5 25/15/5
f 21/51/3 20/54/3 26/10/3 27/9/3
f 35/77/1 50/78/1 48/79/1 46/80/1 51/81/1 33/82/1 34/83/1 36/84/1
f 32/85/2 49/86/2 50/87/2 35/88/2
f 22/89/4 37/90/4 39/91/4 23/92/4 36/93/4 34/94/4
f 23/95/6 32/85/6 35/88/6 36/96/6
f 44/97/1 43/98/1 41/99/1 42/100/1
f 38/101/1 37/102/1 22/1/1 10/4/1
f 40/28/7 39/103/7 43/104/7 44/105/7
f 39/106/4 37/107/4 41/108/4 43/109/4
f 38/29/2 40/28/2 44/105/2 42/110/2
f 37/111/8 38/29/8 42/110/8 41/112/8
f 46/113/9 45/114/9 52/115/9 51/116/9
f 48/117/2 47/118/2 45/114/2 46/113/2
f 50/87/10 49/86/10 47/118/10 48/117/10
f 51/116/2 52/115/2 31/47/2 33/50/2
