# Blender v2.82 (sub 7) OBJ File: 'barricada.blend'
# www.blender.org
mtllib barricada.mtl
o Cube
v 4.084287 2.858561 -0.436654
v 4.084287 0.284997 -1.195418
v 4.084287 2.858561 0.436654
v 4.084287 0.281980 1.190773
v -4.084287 2.858561 -0.436654
v -4.084287 0.284997 -1.195418
v -4.084287 2.858561 0.436654
v -4.084287 0.281980 1.190773
v 4.084287 0.876708 -0.590529
v -4.084287 0.879725 0.595174
v 4.084287 0.879725 0.595174
v -4.084287 0.876708 -0.590529
vt 0.625000 0.500000
vt 0.875000 0.500000
vt 0.875000 0.750000
vt 0.625000 0.750000
vt 0.442350 0.750000
vt 0.625000 1.000000
vt 0.442350 1.000000
vt 0.442350 0.000000
vt 0.625000 0.000000
vt 0.625000 0.250000
vt 0.442350 0.250000
vt 0.125000 0.500000
vt 0.375000 0.500000
vt 0.375000 0.750000
vt 0.125000 0.750000
vt 0.442350 0.500000
vt 0.375000 0.250000
vt 0.375000 0.000000
vt 0.375000 1.000000
vn 0.0000 1.0000 0.0000
vn 0.0000 0.0799 0.9968
vn -1.0000 -0.0000 0.0000
vn 0.0000 -1.0000 -0.0013
vn 1.0000 -0.0000 0.0000
vn 0.0000 0.0774 -0.9970
vn 0.0000 0.7149 -0.6993
vn 0.0000 0.7058 0.7084
usemtl Material
s off
f 1/1/1 5/2/1 7/3/1 3/4/1
f 11/5/2 3/4/2 7/6/2 10/7/2
f 10/8/3 7/9/3 5/10/3 12/11/3
f 6/12/4 2/13/4 4/14/4 8/15/4
f 9/16/5 1/1/5 3/4/5 11/5/5
f 12/11/6 5/10/6 1/1/6 9/16/6
f 6/17/7 12/11/7 9/16/7 2/13/7
f 2/13/5 9/16/5 11/5/5 4/14/5
f 8/18/3 10/8/3 12/11/3 6/17/3
f 4/14/8 11/5/8 10/7/8 8/19/8
