# Blender v2.82 (sub 7) OBJ File: 'entulho1.blend'
# www.blender.org
mtllib entulho1.mtl
o Cube.001_Cube.005
v -7.542871 0.823473 -1.134092
v -6.549686 1.768094 -1.166606
v -7.773310 1.019732 -2.471313
v -6.780126 1.964353 -2.503828
v -7.004566 0.251412 -1.310815
v -6.011382 1.196033 -1.343329
v -7.235005 0.447671 -2.648037
v -6.241821 1.392292 -2.680551
v -14.157476 0.032898 -0.932371
v -14.393177 0.280031 -1.295391
v -15.017033 0.032898 -0.948279
v -14.747496 0.236874 -1.127650
v -14.120029 0.032898 -1.782102
v -14.472587 0.262891 -1.587197
v -14.987833 0.032898 -1.610838
v -14.725245 0.094884 -1.632553
v -6.384770 1.304942 -2.208544
v -4.781406 0.124225 -5.872880
v -5.286059 1.304942 2.939426
v -4.007481 0.124225 5.872880
v -10.841475 1.304942 -0.736326
v -14.029959 0.124225 -5.872880
v -9.851316 1.290776 2.764745
v -12.204247 0.124225 5.872880
v -9.405683 0.124225 -7.051661
v -8.381067 1.441520 2.875947
v -7.733194 0.124225 7.215724
v -8.930649 1.069031 -1.139333
v -14.026203 0.121723 -0.113482
v -5.835414 1.304942 0.365441
v -10.903078 1.304942 1.101550
v -2.844782 0.124225 0.000000
v -8.569438 0.124225 0.000000
v -8.058960 1.805413 0.915045
v -5.583088 0.714583 -4.040712
v -11.584465 0.714584 4.406153
v -4.808855 1.150714 4.233710
v -12.435717 0.714583 -3.304603
v -8.446469 0.690089 -4.499192
v -7.929283 0.714584 4.406152
v -4.928594 0.714584 0.182720
v -12.376627 0.944604 0.358940
v -14.443209 0.140370 1.456641
v -14.029762 0.430402 0.960135
v -14.812372 0.140370 -0.499102
v -14.649817 0.647147 0.275784
v -13.445004 0.140370 1.456641
v -13.691736 0.410287 0.778123
v -13.075842 0.140370 -0.499102
v -13.651613 0.647148 0.275784
v -14.241256 0.139659 -0.244582
v -13.977404 0.324752 -0.432912
v -14.257696 0.139660 -0.888256
v -14.114597 0.292429 -0.692493
v -13.604223 0.139659 -0.244582
v -13.761683 0.311915 -0.501951
v -13.760983 0.139659 -0.888256
v -13.736076 0.186085 -0.692493
v -11.551409 0.177413 2.931100
v -11.712801 1.401184 3.527854
v -11.304962 0.794677 1.731921
v -11.466354 2.018449 2.328676
v -10.765070 0.197317 3.102948
v -10.926462 1.421088 3.699703
v -10.518623 0.814581 1.903769
v -10.680016 2.038353 2.500524
vt 0.740795 0.047164
vt 0.831619 0.047164
vt 0.831619 0.137988
vt 0.740795 0.137988
vt 0.831619 0.228812
vt 0.740795 0.228812
vt 0.831619 0.319636
vt 0.740795 0.319636
vt 0.831619 0.410460
vt 0.740795 0.410460
vt 0.125000 0.500000
vt 0.375000 0.500000
vt 0.375000 0.750000
vt 0.125000 0.750000
vt 0.922443 0.228812
vt 0.922443 0.319636
vt 0.375000 0.000000
vt 0.625000 0.000000
vt 0.625000 0.250000
vt 0.375000 0.250000
vt 0.625000 0.500000
vt 0.375000 0.500000
vt 0.625000 0.750000
vt 0.375000 0.750000
vt 0.625000 1.000000
vt 0.375000 1.000000
vt 0.125000 0.500000
vt 0.125000 0.750000
vt 0.875000 0.500000
vt 0.875000 0.750000
vt 0.750000 0.625000
vt 0.875000 0.625000
vt 0.875000 0.750000
vt 0.750000 0.750000
vt 0.500000 0.875000
vt 0.625000 0.875000
vt 0.625000 1.000000
vt 0.500000 1.000000
vt 0.500000 0.125000
vt 0.625000 0.125000
vt 0.625000 0.250000
vt 0.500000 0.250000
vt 0.250000 0.625000
vt 0.375000 0.625000
vt 0.375000 0.750000
vt 0.250000 0.750000
vt 0.500000 0.625000
vt 0.625000 0.625000
vt 0.625000 0.750000
vt 0.500000 0.750000
vt 0.500000 0.375000
vt 0.625000 0.375000
vt 0.625000 0.500000
vt 0.500000 0.500000
vt 0.125000 0.625000
vt 0.125000 0.750000
vt 0.750000 0.500000
vt 0.125000 0.500000
vt 0.250000 0.500000
vt 0.375000 0.500000
vt 0.500000 0.000000
vt 0.625000 0.000000
vt 0.875000 0.500000
vt 0.375000 0.000000
vt 0.375000 0.125000
vt 0.375000 0.875000
vt 0.375000 0.250000
vt 0.375000 0.375000
vt 0.375000 1.000000
vt 0.375000 0.000000
vt 0.625000 0.000000
vt 0.625000 0.250000
vt 0.375000 0.250000
vt 0.625000 0.500000
vt 0.375000 0.500000
vt 0.625000 0.750000
vt 0.375000 0.750000
vt 0.625000 1.000000
vt 0.375000 1.000000
vt 0.125000 0.500000
vt 0.125000 0.750000
vt 0.875000 0.500000
vt 0.875000 0.750000
vt 0.375000 0.000000
vt 0.625000 0.000000
vt 0.625000 0.250000
vt 0.375000 0.250000
vt 0.625000 0.500000
vt 0.375000 0.500000
vt 0.625000 0.750000
vt 0.375000 0.750000
vt 0.625000 1.000000
vt 0.375000 1.000000
vt 0.125000 0.500000
vt 0.125000 0.750000
vt 0.875000 0.500000
vt 0.875000 0.750000
vt 0.029001 0.011799
vt 0.127823 0.011799
vt 0.127823 0.110621
vt 0.029001 0.110621
vt 0.127823 0.209442
vt 0.029001 0.209442
vt 0.127823 0.308263
vt 0.029001 0.308263
vt 0.127823 0.407084
vt 0.029001 0.407084
vt 0.125000 0.500000
vt 0.375000 0.500000
vt 0.375000 0.750000
vt 0.125000 0.750000
vt 0.226644 0.209442
vt 0.226644 0.308263
vn -0.6686 0.7105 0.2195
vn -0.1681 0.1431 -0.9753
vn 0.6686 -0.7105 -0.2195
vn 0.1681 -0.1431 0.9753
vn -0.7244 -0.6890 0.0237
vn 0.7244 0.6890 -0.0237
vn 0.0529 0.7661 0.6405
vn -0.4814 0.8673 -0.1267
vn -0.1674 0.4643 -0.8697
vn 0.6355 0.7713 -0.0349
vn 0.0000 -1.0000 0.0000
vn -0.3528 0.9221 -0.1589
vn -0.1457 0.9805 0.1316
vn -0.0353 0.9293 0.3676
vn -0.2556 0.9659 -0.0405
vn 0.5376 0.8361 -0.1093
vn -0.0696 0.9774 -0.1997
vn -0.0001 0.9869 -0.1613
vn 0.0002 -1.0000 0.0001
vn -0.0404 0.9500 0.3096
vn 0.1252 0.9894 0.0731
vn 0.0013 0.9875 -0.1575
vn 0.0002 -1.0000 -0.0002
vn 0.4944 0.8648 -0.0876
vn -0.2469 0.9615 0.1208
vn -0.0758 0.9825 -0.1701
vn -0.4769 0.8671 0.1439
vn 0.3267 0.9414 -0.0838
vn 0.0150 0.9408 0.3386
vn -0.0511 0.9793 -0.1956
vn 0.0529 0.9651 -0.2564
vn 0.4841 0.8750 0.0124
vn -0.3837 0.9232 -0.0197
vn -0.0433 0.9641 0.2619
vn -0.8140 0.4684 0.3435
vn -0.0000 0.8369 -0.5473
vn 0.6863 0.7042 0.1821
vn 0.0731 0.8963 0.4375
vn 0.0593 0.9418 0.3310
vn -0.6375 0.7661 0.0810
vn 0.1054 0.8673 -0.4865
vn 0.8615 0.4643 -0.2055
vn 0.0629 0.7713 0.6334
vn 0.1432 0.9221 -0.3595
vn -0.9766 -0.0247 -0.2134
vn 0.1797 0.4502 -0.8746
vn 0.9766 0.0247 0.2134
vn -0.1798 -0.4502 0.8746
vn 0.1177 -0.8926 -0.4353
vn -0.1177 0.8926 0.4353
usemtl Material
s off
f 1/1/1 2/2/1 4/3/1 3/4/1
f 3/4/2 4/3/2 8/5/2 7/6/2
f 7/6/3 8/5/3 6/7/3 5/8/3
f 5/8/4 6/7/4 2/9/4 1/10/4
f 3/11/5 7/12/5 5/13/5 1/14/5
f 8/5/6 4/15/6 2/16/6 6/7/6
f 9/17/7 10/18/7 12/19/7 11/20/7
f 11/20/8 12/19/8 16/21/8 15/22/8
f 15/22/9 16/21/9 14/23/9 13/24/9
f 13/24/10 14/23/10 10/25/10 9/26/10
f 11/27/11 15/22/11 13/24/11 9/28/11
f 16/21/12 12/29/12 10/30/12 14/23/12
f 34/31/13 31/32/13 23/33/13 26/34/13
f 40/35/14 26/36/14 23/37/14 36/38/14
f 42/39/15 31/40/15 21/41/15 38/42/15
f 33/43/11 32/44/11 20/45/11 27/46/11
f 41/47/16 30/48/16 19/49/16 37/50/16
f 39/51/17 28/52/17 17/53/17 35/54/17
f 38/42/18 21/41/18 28/52/18 39/51/18
f 29/55/19 33/43/19 27/46/19 24/56/19
f 37/50/20 19/49/20 26/36/20 40/35/20
f 30/48/21 34/31/21 26/34/21 19/49/21
f 17/53/22 28/57/22 34/31/22 30/48/22
f 22/58/23 25/59/23 33/43/23 29/55/23
f 35/54/24 17/53/24 30/48/24 41/47/24
f 25/59/11 18/60/11 32/44/11 33/43/11
f 36/61/25 23/62/25 31/40/25 42/39/25
f 28/57/26 21/63/26 31/32/26 34/31/26
f 24/64/27 36/61/27 42/39/27 29/65/27
f 18/60/28 35/54/28 41/47/28 32/44/28
f 20/45/29 37/50/29 40/35/29 27/66/29
f 22/67/30 38/42/30 39/51/30 25/68/30
f 25/68/31 39/51/31 35/54/31 18/60/31
f 32/44/32 41/47/32 37/50/32 20/45/32
f 29/65/33 42/39/33 38/42/33 22/67/33
f 27/66/34 40/35/34 36/38/34 24/69/34
f 43/70/35 44/71/35 46/72/35 45/73/35
f 45/73/36 46/72/36 50/74/36 49/75/36
f 49/75/37 50/74/37 48/76/37 47/77/37
f 47/77/38 48/76/38 44/78/38 43/79/38
f 45/80/11 49/75/11 47/77/11 43/81/11
f 50/74/39 46/82/39 44/83/39 48/76/39
f 51/84/40 52/85/40 54/86/40 53/87/40
f 53/87/41 54/86/41 58/88/41 57/89/41
f 57/89/42 58/88/42 56/90/42 55/91/42
f 55/91/43 56/90/43 52/92/43 51/93/43
f 53/94/11 57/89/11 55/91/11 51/95/11
f 58/88/44 54/96/44 52/97/44 56/90/44
f 59/98/45 60/99/45 62/100/45 61/101/45
f 61/101/46 62/100/46 66/102/46 65/103/46
f 65/103/47 66/102/47 64/104/47 63/105/47
f 63/105/48 64/104/48 60/106/48 59/107/48
f 61/108/49 65/109/49 63/110/49 59/111/49
f 66/102/50 62/112/50 60/113/50 64/104/50
