# Blender v2.82 (sub 7) OBJ File: 'littlelixeira.blend'
# www.blender.org
mtllib lixo.mtl
o Cylinder_Cylinder.001
v 0.000000 0.137022 -1.552306
v -0.000000 3.986229 -1.939308
v 0.721392 0.137022 -1.374498
v 0.901241 3.986229 -1.717172
v 1.277523 0.137022 -0.881810
v 1.596019 3.986229 -1.101652
v 1.540988 0.137022 -0.187110
v 1.925168 3.986229 -0.233758
v 1.451431 0.137022 0.550455
v 1.813284 3.986229 0.687688
v 1.029369 0.137022 1.161918
v 1.285999 3.986229 1.451593
v 0.371491 0.137022 1.507199
v 0.464107 3.986229 1.882955
v -0.371491 0.137022 1.507199
v -0.464107 3.986229 1.882955
v -1.029369 0.137022 1.161918
v -1.285999 3.986229 1.451593
v -1.451431 0.137022 0.550455
v -1.813284 3.986229 0.687688
v -1.540988 0.137022 -0.187110
v -1.925168 3.986229 -0.233758
v -1.277522 0.137022 -0.881811
v -1.596019 3.986229 -1.101653
v -0.721392 0.137022 -1.374499
v -0.901241 3.986229 -1.717172
v 0.000000 0.622187 -1.552306
v 0.721392 0.622187 -1.374498
v 1.277523 0.622187 -0.881810
v 1.540988 0.622187 -0.187110
v 1.451431 0.622187 0.550455
v 1.029369 0.622187 1.161918
v 0.371491 0.622187 1.507199
v -0.371491 0.622187 1.507199
v -1.029369 0.622187 1.161918
v -1.451431 0.622187 0.550455
v -1.540988 0.622187 -0.187110
v -1.277522 0.622187 -0.881811
v -0.721392 0.622187 -1.374499
v 0.000000 3.504590 -1.552306
v -0.721392 3.504590 -1.374499
v -1.277522 3.504590 -0.881811
v -1.540988 3.504590 -0.187110
v -1.451431 3.504590 0.550455
v -1.029369 3.504590 1.161918
v -0.371491 3.504590 1.507199
v 0.371491 3.504590 1.507199
v 1.029369 3.504590 1.161918
v 1.451431 3.504590 0.550455
v 1.540988 3.504590 -0.187110
v 1.277523 3.504590 -0.881810
v 0.721392 3.504590 -1.374498
v -0.721392 3.770658 -1.374499
v -1.277522 3.770658 -0.881811
v -1.540988 3.770658 -0.187110
v -1.451431 3.770658 0.550455
v -1.029369 3.770658 1.161918
v -0.371491 3.770658 1.507199
v 0.371491 3.770658 1.507199
v 1.029369 3.770658 1.161918
v 1.451431 3.770658 0.550455
v 1.540988 3.770658 -0.187110
v 1.277523 3.770658 -0.881810
v 0.721392 3.770658 -1.374498
v 0.000000 3.770658 -1.552306
v 0.005851 0.100680 -1.804908
v -0.085284 0.210041 -1.886311
v 0.101825 0.210041 -1.886311
v 0.788875 0.210041 -1.716969
v 0.954552 0.210041 -1.630015
v 0.835337 0.100673 -1.600502
v 0.788875 0.549168 -1.716969
v 0.835337 0.658535 -1.600502
v 0.954552 0.549168 -1.630015
v 1.484208 0.210041 -1.160781
v 1.590498 0.210041 -1.006793
v 1.474453 0.100737 -1.033725
v 1.484208 0.549168 -1.160781
v 1.474453 0.658472 -1.033725
v 1.590498 0.549168 -1.006793
v 1.841421 0.210041 -0.345164
v 1.863974 0.210041 -0.159419
v 1.776525 0.100860 -0.234950
v 1.841421 0.549168 -0.345164
v 1.776525 0.658349 -0.234950
v 1.863974 0.549168 -0.159419
v 1.778681 0.210041 0.543034
v 1.712331 0.210041 0.717984
v 1.672626 0.101022 0.612286
v 1.778681 0.549168 0.543034
v 1.672626 0.658187 0.612286
v 1.712331 0.549168 0.717984
v 1.310362 0.210041 1.300337
v 1.170308 0.210041 1.424413
v 1.187195 0.101188 1.313787
v 1.310362 0.549168 1.300337
v 1.187195 0.658021 1.313787
v 1.170308 0.549168 1.424413
v 0.543749 0.210041 1.753257
v 0.362077 0.210041 1.798036
v 0.431917 0.101317 1.709340
v 0.543749 0.549168 1.753257
v 0.431917 0.657892 1.709340
v 0.362077 0.549168 1.798036
v -0.345536 0.210041 1.798036
v -0.527208 0.210041 1.753257
v -0.420346 0.101372 1.709033
v -0.345536 0.549168 1.798036
v -0.420346 0.657837 1.709033
v -0.527208 0.549168 1.753257
v -1.153767 0.210041 1.424414
v -1.293821 0.210041 1.300337
v -1.175064 0.101333 1.313172
v -1.153767 0.549168 1.424414
v -1.175064 0.657876 1.313172
v -1.293821 0.549168 1.300337
v -1.695790 0.210041 0.717984
v -1.762140 0.210041 0.543034
v -1.659910 0.101214 0.611955
v -1.695790 0.549168 0.717984
v -1.659910 0.657994 0.611955
v -1.762140 0.549168 0.543034
v -1.847433 0.210041 -0.159420
v -1.824879 0.210041 -0.345165
v -1.763696 0.101052 -0.234697
v -1.847433 0.549168 -0.159420
v -1.763696 0.658157 -0.234697
v -1.824879 0.549168 -0.345165
v -1.573957 0.210041 -1.006794
v -1.467666 0.210041 -1.160782
v -1.462007 0.100886 -1.033100
v -1.573957 0.549168 -1.006794
v -1.462007 0.658323 -1.033100
v -1.467666 0.549168 -1.160782
v -0.938011 0.210041 -1.630015
v -0.772334 0.210041 -1.716969
v -0.823405 0.100754 -1.599999
v -0.938011 0.549168 -1.630015
v -0.823405 0.658454 -1.599999
v -0.772334 0.549168 -1.716969
v 0.101825 0.549168 -1.886311
v -0.085284 0.549168 -1.886311
v 0.005851 0.658529 -1.804908
v 0.073033 3.520442 -1.807824
v 0.794426 3.520442 -1.630016
v 0.794426 3.786510 -1.630016
v 0.073033 3.786510 -1.807824
v 0.371491 3.770658 1.726080
v -0.371491 3.770658 1.726080
v -0.371491 3.504590 1.726080
v 0.371491 3.504590 1.726080
v 0.419558 4.232441 -0.799400
v 0.000000 4.232441 -0.902812
v 0.743000 4.232441 -0.512856
v 0.896229 4.232441 -0.108822
v 0.844144 4.232441 0.320142
v 0.598675 4.232441 0.675764
v 0.216057 4.232441 0.876578
v -0.216057 4.232441 0.876578
v -0.598675 4.232441 0.675765
v -0.844144 4.232441 0.320142
v -0.896229 4.232441 -0.108822
v -0.742999 4.232441 -0.512856
v -0.419557 4.232441 -0.799401
vt 0.997185 0.854773
vt 0.997185 0.997185
vt 0.920262 0.997185
vt 0.920262 0.854773
vt 0.843339 0.997185
vt 0.843339 0.854773
vt 0.766416 0.997185
vt 0.766416 0.854773
vt 0.689492 0.997185
vt 0.689492 0.854773
vt 0.612569 0.997185
vt 0.612569 0.854773
vt 0.535646 0.997185
vt 0.535646 0.854773
vt 0.458723 0.997185
vt 0.458723 0.854773
vt 0.381800 0.997185
vt 0.381800 0.854773
vt 0.304877 0.997185
vt 0.304877 0.854773
vt 0.227954 0.997185
vt 0.227954 0.854773
vt 0.151031 0.997185
vt 0.151031 0.854773
vt 0.689492 0.952141
vt 0.766416 0.952141
vt 0.766416 0.856424
vt 0.689492 0.856424
vt 0.074108 0.997185
vt 0.074108 0.854773
vt -0.002815 0.997185
vt -0.002815 0.854773
vt 1.303284 0.993736
vt 1.414818 0.966246
vt 1.500800 0.890072
vt 1.541534 0.782665
vt 1.527688 0.668631
vt 1.462434 0.574094
vt 1.360720 0.520710
vt 1.245848 0.520710
vt 1.144135 0.574094
vt 1.078880 0.668631
vt 1.065034 0.782665
vt 1.105768 0.890072
vt 1.191751 0.966246
vt 1.245848 0.520710
vt 1.144135 0.574094
vt 0.299460 0.512806
vt 0.299460 0.547720
vt 0.239002 0.547720
vt 0.239002 0.512806
vt 0.692308 0.560526
vt 0.615385 0.560526
vt 0.615385 0.560526
vt 0.692308 0.560526
vt 1.078880 0.668631
vt 1.500800 0.890072
vt 1.541534 0.782665
vt 0.145614 0.512806
vt 0.145614 0.547720
vt 0.085156 0.547720
vt 0.085156 0.512806
vt 0.530229 0.512806
vt 0.530229 0.547720
vt 0.469771 0.547720
vt 0.469771 0.512806
vt 1.065034 0.782665
vt 0.914844 0.512806
vt 0.914844 0.547720
vt 0.854386 0.547720
vt 0.854386 0.512806
vt 1.000000 0.560526
vt 0.923077 0.560526
vt 0.923077 0.560526
vt 1.000000 0.560526
vt 0.222537 0.512806
vt 0.222537 0.547720
vt 0.162079 0.547720
vt 0.162079 0.512806
vt 0.376383 0.512806
vt 0.376383 0.547720
vt 0.315925 0.547720
vt 0.315925 0.512806
vt 0.760998 0.512806
vt 0.760998 0.547720
vt 0.700540 0.547720
vt 0.700540 0.512806
vt 0.991767 0.512806
vt 0.991768 0.547720
vt 0.931309 0.547720
vt 0.931309 0.512806
vt 0.153846 0.560526
vt 0.076923 0.560526
vt 0.076923 0.560526
vt 0.153846 0.560526
vt 1.105768 0.890072
vt 0.307692 0.560526
vt 0.230769 0.560526
vt 0.230769 0.560526
vt 0.307692 0.560526
vt 0.384615 0.560526
vt 0.384615 0.560526
vt 0.461538 0.560526
vt 0.461538 0.560526
vt 0.538462 0.560526
vt 0.538462 0.560526
vt 1.462434 0.574094
vt 1.360720 0.520710
vt 1.527688 0.668631
vt 0.846154 0.560526
vt 0.769231 0.560526
vt 0.769231 0.560526
vt 0.846154 0.560526
vt 1.191751 0.966246
vt 1.303284 0.993736
vt 0.837921 0.512806
vt 0.837921 0.547720
vt 0.777463 0.547720
vt 0.777463 0.512806
vt 0.453306 0.512806
vt 0.453306 0.547720
vt 0.392848 0.547720
vt 0.392848 0.512806
vt 0.068691 0.512806
vt 0.068691 0.547720
vt 0.008233 0.547720
vt 0.008233 0.512806
vt 1.414818 0.966246
vt 0.076923 0.920113
vt 0.076923 0.953306
vt 0.000000 0.953306
vt 0.000000 0.920113
vt 0.607152 0.512806
vt 0.607152 0.547720
vt 0.546694 0.547720
vt 0.546694 0.512806
vt 0.000000 0.560526
vt 0.000000 0.560526
vt 0.684075 0.512806
vt 0.684075 0.547720
vt 0.623617 0.547720
vt 0.623617 0.512806
vt 1.291348 0.990794
vt 1.303284 0.993736
vt 0.923077 0.512806
vt 0.925074 0.500000
vt 0.846154 0.512806
vt 0.847812 0.500000
vt 0.769231 0.512806
vt 0.770625 0.500000
vt 0.692308 0.512806
vt 0.693574 0.500000
vt 0.615385 0.512806
vt 0.616693 0.500000
vt 0.538462 0.512806
vt 0.539977 0.500000
vt 0.461538 0.512806
vt 0.463379 0.500000
vt 0.384615 0.512806
vt 0.386820 0.500000
vt 0.307692 0.512806
vt 0.310211 0.500000
vt 0.230769 0.512806
vt 0.233479 0.500000
vt 0.153846 0.512806
vt 0.156585 0.500000
vt 0.076923 0.512806
vt 0.079527 0.500000
vt 1.000000 0.547720
vt 0.998065 0.560526
vt 0.998065 0.500000
vt 0.920796 0.500000
vt 0.843589 0.500000
vt 0.766504 0.500000
vt 0.689580 0.500000
vt 0.612822 0.500000
vt 0.536196 0.500000
vt 0.459634 0.500000
vt 0.383049 0.500000
vt 0.306358 0.500000
vt 0.229508 0.500000
vt 0.152486 0.500000
vt 0.002337 0.500000
vt 0.075319 0.500000
vt 0.000000 0.547720
vt 0.000000 0.512806
vt 0.153846 0.920113
vt 0.153846 0.953306
vt 0.230769 0.920113
vt 0.230769 0.953306
vt 0.307692 0.920113
vt 0.307692 0.953306
vt 0.384615 0.920113
vt 0.384615 0.953306
vt 0.461538 0.920113
vt 0.461538 0.953306
vt 0.461538 0.920113
vt 0.461538 0.953306
vt 0.615385 0.920113
vt 0.615385 0.953306
vt 0.538462 0.953306
vt 0.538462 0.920113
vt 0.692308 0.920113
vt 0.692308 0.953306
vt 0.769231 0.920113
vt 0.769231 0.953306
vt 0.846154 0.920113
vt 0.846154 0.953306
vt 0.923077 0.920113
vt 0.923077 0.953306
vt 1.000000 0.953306
vt 0.923077 0.953306
vt 1.000000 0.953306
vt 1.000000 0.920113
vt 1.000000 0.920113
vt 0.923077 0.920113
vt 0.000000 0.953306
vt 0.000000 0.920113
vt 0.538462 0.920113
vt 0.538462 0.953306
vt 0.361534 0.462509
vt 0.250000 0.490000
vt 0.138467 0.462510
vt 0.052484 0.386336
vt 0.011750 0.278929
vt 0.025596 0.164895
vt 0.090851 0.070357
vt 0.192564 0.016974
vt 0.307436 0.016974
vt 0.409149 0.070357
vt 0.474404 0.164895
vt 0.488250 0.278929
vt 0.447516 0.386336
vt 0.304877 0.952141
vt 0.381800 0.952141
vt 0.381800 0.856424
vt 0.304877 0.856424
vt 0.843339 0.952141
vt 0.920262 0.952141
vt 0.920262 0.856424
vt 0.843339 0.856424
vt 0.458723 0.952141
vt 0.535646 0.952141
vt 0.535646 0.856424
vt 0.458723 0.856424
vt 0.074108 0.952141
vt 0.151031 0.952141
vt 0.151031 0.856424
vt 0.074108 0.856424
vt 0.612569 0.952141
vt 0.612569 0.856424
vt 0.227954 0.952141
vt 0.227954 0.856424
vt 0.997185 0.952141
vt 0.997185 0.856424
vt -0.002815 0.952141
vt -0.002815 0.856424
vn 0.1191 -0.8674 -0.4832
vn 0.3300 -0.8674 -0.3725
vn 0.4653 -0.8674 -0.1765
vn 0.4940 -0.8674 0.0600
vn 0.4095 -0.8674 0.2827
vn 0.2313 -0.8674 0.4406
vn 0.0000 -0.8674 0.4976
vn -0.2313 -0.8674 0.4406
vn -0.4095 -0.8674 0.2827
vn -0.4940 -0.8674 0.0600
vn -0.4653 -0.8674 -0.1765
vn 0.2359 0.9714 0.0286
vn -0.3300 -0.8674 -0.3725
vn -0.1191 -0.8674 -0.4832
vn 0.0000 -1.0000 -0.0000
vn 0.0810 -0.9847 -0.1543
vn -0.9927 0.0000 0.1205
vn -0.1346 0.9865 -0.0929
vn 0.1406 -0.9853 -0.0970
vn -0.1409 -0.9886 0.0534
vn -0.6631 0.0000 -0.7485
vn 0.0000 0.0000 1.0000
vn 0.1635 -0.9863 -0.0199
vn 0.6631 0.0000 -0.7485
vn -0.0349 0.9893 0.1415
vn -0.9350 0.0000 -0.3546
vn -0.8230 0.0000 0.5681
vn 0.9927 0.0000 0.1205
vn 0.2393 0.0000 -0.9709
vn 0.1005 0.9884 0.1135
vn 0.1475 -0.9875 0.0560
vn 0.1636 0.9863 -0.0199
vn 0.1406 0.9853 -0.0970
vn 0.0810 0.9847 -0.1543
vn 0.0000 0.9848 -0.1739
vn -0.0790 -0.9855 -0.1505
vn -0.1346 -0.9865 -0.0929
vn -0.1555 -0.9877 -0.0189
vn -0.1409 0.9886 0.0534
vn -0.0974 0.9891 0.1100
vn 0.0353 -0.9891 0.1431
vn 0.9350 0.0000 -0.3546
vn 0.0000 -0.9848 -0.1739
vn -0.4647 0.0000 0.8855
vn -0.2393 0.0000 -0.9709
vn -0.0974 -0.9891 0.1100
vn 0.4647 0.0000 0.8855
vn 0.0353 0.9891 0.1431
vn -0.0790 0.9855 -0.1505
vn 0.1475 0.9875 0.0560
vn 0.8230 0.0000 0.5681
vn 0.1005 -0.9884 0.1135
vn -0.1555 0.9877 -0.0189
vn 0.0000 -0.5971 -0.8022
vn 0.3726 -0.5977 -0.7099
vn 0.3726 0.5977 -0.7099
vn 0.6635 -0.5916 -0.4580
vn 0.6635 0.5916 -0.4580
vn 0.8088 -0.5799 -0.0982
vn 0.8088 0.5799 -0.0982
vn 0.7716 -0.5648 0.2926
vn 0.7716 0.5648 0.2926
vn 0.5540 -0.5496 0.6253
vn 0.5540 0.5496 0.6253
vn 0.2017 -0.5381 0.8184
vn 0.2017 0.5381 0.8184
vn -0.2024 -0.5333 0.8213
vn -0.2024 0.5333 0.8213
vn -0.5595 -0.5367 0.6316
vn -0.5595 0.5367 0.6316
vn -0.7826 -0.5472 0.2968
vn -0.7826 0.5472 0.2968
vn -0.8211 -0.5620 -0.0997
vn -0.8211 0.5620 -0.0997
vn -0.6719 -0.5774 -0.4638
vn -0.6719 0.5774 -0.4638
vn -0.3753 -0.5899 -0.7150
vn -0.3753 0.5899 -0.7150
vn 0.0000 0.5971 -0.8022
vn 0.1750 -0.6820 -0.7101
vn 0.4647 0.0000 -0.8855
vn 0.4865 -0.6798 -0.5488
vn 0.8230 0.0000 -0.5681
vn 0.6919 -0.6728 -0.2619
vn 0.9927 0.0000 -0.1205
vn 0.7438 -0.6622 0.0909
vn 0.9350 0.0000 0.3546
vn 0.6250 -0.6502 0.4321
vn 0.6631 0.0000 0.7485
vn 0.3569 -0.6394 0.6810
vn 0.2393 0.0000 0.9709
vn -0.0002 -0.6329 0.7743
vn -0.2393 0.0000 0.9709
vn -0.3599 -0.6323 0.6860
vn -0.6631 0.0000 0.7485
vn -0.6336 -0.6379 0.4378
vn -0.9350 0.0000 0.3546
vn -0.7559 -0.6481 0.0923
vn -0.9927 0.0000 -0.1205
vn -0.7025 -0.6601 -0.2658
vn -0.8230 0.0000 -0.5681
vn -0.4919 -0.6712 -0.5546
vn -0.4647 0.0000 -0.8855
vn -0.1760 -0.6789 -0.7128
vn 0.0000 0.0000 -1.0000
vn -0.1760 0.6789 -0.7128
vn -0.4919 0.6712 -0.5546
vn -0.7025 0.6601 -0.2658
vn -0.7559 0.6481 0.0923
vn -0.6336 0.6379 0.4378
vn -0.3599 0.6323 0.6860
vn -0.0002 0.6329 0.7743
vn 0.3569 0.6394 0.6810
vn 0.6250 0.6502 0.4321
vn 0.7438 0.6622 0.0909
vn 0.6919 0.6728 -0.2619
vn 0.4865 0.6798 -0.5488
vn 0.1750 0.6820 -0.7101
vn -0.0349 -0.9893 0.1415
vn -1.0000 0.0000 0.0000
vn -0.0143 0.9982 0.0579
vn 0.0143 -0.9982 -0.0579
vn 0.9615 0.0000 0.2748
vn -0.9615 0.0000 -0.2748
vn 1.0000 0.0000 0.0000
vn 0.0000 1.0000 0.0000
vn -0.1956 0.9714 0.1350
vn 0.1576 0.9714 -0.1779
vn 0.0000 0.9714 0.2376
vn -0.1576 0.9714 -0.1779
vn 0.1956 0.9714 0.1350
vn -0.2359 0.9714 0.0286
vn 0.2222 0.9714 -0.0843
vn -0.1104 0.9714 0.2104
vn 0.0569 0.9714 -0.2307
vn -0.0569 0.9714 -0.2307
vn 0.1104 0.9714 0.2104
vn -0.2222 0.9714 -0.0843
usemtl Material.001
s off
f 65/1/1 2/2/1 4/3/1 64/4/1
f 64/4/2 4/3/2 6/5/2 63/6/2
f 63/6/3 6/5/3 8/7/3 62/8/3
f 62/8/4 8/7/4 10/9/4 61/10/4
f 61/10/5 10/9/5 12/11/5 60/12/5
f 60/12/6 12/11/6 14/13/6 59/14/6
f 59/14/7 14/13/7 16/15/7 58/16/7
f 58/16/8 16/15/8 18/17/8 57/18/8
f 57/18/9 18/17/9 20/19/9 56/20/9
f 56/20/10 20/19/10 22/21/10 55/22/10
f 55/22/11 22/21/11 24/23/11 54/24/11
f 10/25/12 8/26/12 155/27/12 156/28/12
f 54/24/13 24/23/13 26/29/13 53/30/13
f 53/30/14 26/29/14 2/31/14 65/32/14
f 1/33/15 3/34/15 5/35/15 7/36/15 9/37/15 11/38/15 13/39/15 15/40/15 17/41/15 19/42/15 21/43/15 23/44/15 25/45/15
f 17/41/16 15/40/16 107/46/16 113/47/16
f 118/48/17 122/49/17 126/50/17 123/51/17
f 31/52/18 32/53/18 97/54/18 91/55/18
f 19/42/19 17/41/19 113/47/19 119/56/19
f 7/36/20 5/35/20 77/57/20 83/58/20
f 130/59/21 134/60/21 138/61/21 135/62/21
f 100/63/22 104/64/22 108/65/22 105/66/22
f 21/43/23 19/42/23 119/56/23 125/67/23
f 70/68/24 74/69/24 78/70/24 75/71/24
f 27/72/25 28/73/25 73/74/25 143/75/25
f 124/76/26 128/77/26 132/78/26 129/79/26
f 112/80/27 116/81/27 120/82/27 117/83/27
f 82/84/28 86/85/28 90/86/28 87/87/28
f 68/88/29 141/89/29 72/90/29 69/91/29
f 38/92/30 39/93/30 139/94/30 133/95/30
f 23/44/31 21/43/31 125/67/31 131/96/31
f 36/97/32 37/98/32 127/99/32 121/100/32
f 35/101/33 36/97/33 121/100/33 115/102/33
f 34/103/34 35/101/34 115/102/34 109/104/34
f 33/105/35 34/103/35 109/104/35 103/106/35
f 13/39/36 11/38/36 95/107/36 101/108/36
f 11/38/37 9/37/37 89/109/37 95/107/37
f 9/37/38 7/36/38 83/58/38 89/109/38
f 29/110/39 30/111/39 85/112/39 79/113/39
f 28/73/40 29/110/40 79/113/40 73/74/40
f 1/33/41 25/45/41 137/114/41 66/115/41
f 76/116/42 80/117/42 84/118/42 81/119/42
f 15/40/43 13/39/43 101/108/43 107/46/43
f 106/120/44 110/121/44 114/122/44 111/123/44
f 136/124/45 140/125/45 142/126/45 67/127/45
f 5/35/46 3/34/46 71/128/46 77/57/46
f 41/129/45 53/130/45 65/131/45 40/132/45
f 94/133/47 98/134/47 102/135/47 99/136/47
f 39/93/48 27/137/48 143/138/48 139/94/48
f 32/53/49 33/105/49 103/106/49 97/54/49
f 37/98/50 38/92/50 133/95/50 127/99/50
f 88/139/51 92/140/51 96/141/51 93/142/51
f 25/45/52 23/44/52 131/96/52 137/114/52
f 30/111/53 31/52/53 91/55/53 85/112/53
f 66/115/54 67/143/54 68/144/54
f 69/91/55 70/145/55 71/146/55
f 72/90/56 73/74/56 74/69/56
f 75/71/57 76/147/57 77/148/57
f 78/70/58 79/113/58 80/117/58
f 81/119/59 82/149/59 83/150/59
f 84/118/60 85/112/60 86/85/60
f 87/87/61 88/151/61 89/152/61
f 90/86/62 91/55/62 92/140/62
f 93/142/63 94/153/63 95/154/63
f 96/141/64 97/54/64 98/134/64
f 99/136/65 100/155/65 101/156/65
f 102/135/66 103/106/66 104/64/66
f 105/66/67 106/157/67 107/158/67
f 108/65/68 109/104/68 110/121/68
f 111/123/69 112/159/69 113/160/69
f 114/122/70 115/102/70 116/81/70
f 117/83/71 118/161/71 119/162/71
f 120/82/72 121/100/72 122/49/72
f 123/51/73 124/163/73 125/164/73
f 126/50/74 127/99/74 128/77/74
f 129/79/75 130/165/75 131/166/75
f 132/78/76 133/95/76 134/60/76
f 135/62/77 136/167/77 137/168/77
f 138/61/78 139/94/78 140/125/78
f 141/89/79 142/169/79 143/170/79
f 68/88/80 69/91/80 71/146/80 66/171/80
f 74/69/81 70/68/81 69/91/81 72/90/81
f 70/68/82 75/71/82 77/148/82 71/172/82
f 80/117/83 76/116/83 75/71/83 78/70/83
f 76/116/84 81/119/84 83/150/84 77/173/84
f 86/85/85 82/84/85 81/119/85 84/118/85
f 82/84/86 87/87/86 89/152/86 83/174/86
f 92/140/87 88/139/87 87/87/87 90/86/87
f 88/139/88 93/142/88 95/154/88 89/175/88
f 98/134/89 94/133/89 93/142/89 96/141/89
f 94/133/90 99/136/90 101/156/90 95/176/90
f 104/64/91 100/63/91 99/136/91 102/135/91
f 100/63/92 105/66/92 107/158/92 101/177/92
f 110/121/93 106/120/93 105/66/93 108/65/93
f 106/120/94 111/123/94 113/160/94 107/178/94
f 116/81/95 112/80/95 111/123/95 114/122/95
f 112/80/96 117/83/96 119/162/96 113/179/96
f 122/49/97 118/48/97 117/83/97 120/82/97
f 118/48/98 123/51/98 125/164/98 119/180/98
f 128/77/99 124/76/99 123/51/99 126/50/99
f 124/76/100 129/79/100 131/166/100 125/181/100
f 134/60/101 130/59/101 129/79/101 132/78/101
f 130/59/102 135/62/102 137/168/102 131/182/102
f 140/125/103 136/124/103 135/62/103 138/61/103
f 136/124/104 67/127/104 66/183/104 137/184/104
f 67/127/105 142/126/105 141/185/105 68/186/105
f 139/94/106 143/138/106 142/126/106 140/125/106
f 133/95/107 139/94/107 138/61/107 134/60/107
f 127/99/108 133/95/108 132/78/108 128/77/108
f 121/100/109 127/99/109 126/50/109 122/49/109
f 115/102/110 121/100/110 120/82/110 116/81/110
f 109/104/111 115/102/111 114/122/111 110/121/111
f 103/106/112 109/104/112 108/65/112 104/64/112
f 97/54/113 103/106/113 102/135/113 98/134/113
f 91/55/114 97/54/114 96/141/114 92/140/114
f 85/112/115 91/55/115 90/86/115 86/85/115
f 79/113/116 85/112/116 84/118/116 80/117/116
f 73/74/117 79/113/117 78/70/117 74/69/117
f 143/75/118 73/74/118 72/90/118 141/89/118
f 3/34/119 1/33/119 66/115/119 71/128/119
f 42/187/21 54/188/21 53/130/21 41/129/21
f 43/189/26 55/190/26 54/188/26 42/187/26
f 44/191/17 56/192/17 55/190/17 43/189/17
f 45/193/27 57/194/27 56/192/27 44/191/27
f 46/195/44 58/196/44 57/194/44 45/193/44
f 58/196/120 46/195/120 150/197/120 149/198/120
f 48/199/47 60/200/47 59/201/47 47/202/47
f 49/203/51 61/204/51 60/200/51 48/199/51
f 50/205/28 62/206/28 61/204/28 49/203/28
f 51/207/42 63/208/42 62/206/42 50/205/42
f 52/209/24 64/210/24 63/208/24 51/207/24
f 65/211/121 64/210/121 146/212/121 147/213/121
f 27/72/29 40/214/29 52/209/29 28/73/29
f 28/73/24 52/209/24 51/207/24 29/110/24
f 29/110/42 51/207/42 50/205/42 30/111/42
f 30/111/28 50/205/28 49/203/28 31/52/28
f 31/52/51 49/203/51 48/199/51 32/53/51
f 32/53/47 48/199/47 47/202/47 33/105/47
f 33/105/22 47/202/22 46/195/22 34/103/22
f 34/103/44 46/195/44 45/193/44 35/101/44
f 35/101/27 45/193/27 44/191/27 36/97/27
f 36/97/17 44/191/17 43/189/17 37/98/17
f 37/98/26 43/189/26 42/187/26 38/92/26
f 38/92/21 42/187/21 41/129/21 39/93/21
f 39/93/45 41/129/45 40/132/45 27/137/45
f 144/215/29 147/213/29 146/212/29 145/216/29
f 52/209/122 40/214/122 144/215/122 145/216/122
f 64/210/123 52/209/123 145/216/123 146/212/123
f 40/132/124 65/131/124 147/217/124 144/218/124
f 151/219/22 148/220/22 149/198/22 150/197/22
f 47/202/125 59/201/125 148/220/125 151/219/125
f 46/195/15 47/202/15 151/219/15 150/197/15
f 59/201/126 58/196/126 149/198/126 148/220/126
f 152/221/126 153/222/126 164/223/126 163/224/126 162/225/126 161/226/126 160/227/126 159/228/126 158/229/126 157/230/126 156/231/126 155/232/126 154/233/126
f 20/234/127 18/235/127 160/236/127 161/237/127
f 6/238/128 4/239/128 152/240/128 154/241/128
f 16/242/129 14/243/129 158/244/129 159/245/129
f 26/246/130 24/247/130 163/248/130 164/249/130
f 12/250/131 10/25/131 156/28/131 157/251/131
f 22/252/132 20/234/132 161/237/132 162/253/132
f 8/26/133 6/238/133 154/241/133 155/27/133
f 18/235/134 16/242/134 159/245/134 160/236/134
f 4/239/135 2/254/135 153/255/135 152/240/135
f 2/256/136 26/246/136 164/249/136 153/257/136
f 14/243/137 12/250/137 157/251/137 158/244/137
f 24/247/138 22/252/138 162/253/138 163/248/138
