# Blender v2.82 (sub 7) OBJ File: 'placaFlutuante.blend'
# www.blender.org
mtllib placaFlutuanteG3.mtl
o Cube.004_Cube.006
v -19.111986 32.155838 -0.608904
v -14.452899 15.397337 -0.730233
v -19.071844 32.161320 0.175667
v -14.412758 15.402817 0.054338
v -29.393898 28.671459 -0.058517
v -25.055773 13.067440 -0.171487
v -29.353756 28.676937 0.726054
v -25.015633 13.072920 0.613083
v -29.246086 31.526031 0.700647
v -23.453064 10.688816 0.549789
v -29.286228 31.520552 -0.083924
v -23.493204 10.683336 -0.234782
v -20.568501 33.941853 0.239804
v -14.815619 13.099157 -0.695625
v -14.775478 13.104636 0.088946
v -20.608643 33.936371 -0.544766
v -15.591738 12.130806 0.137510
v -22.099176 35.387878 -0.478644
v -22.059036 35.393356 0.305927
v -15.631878 12.125327 -0.647061
v -22.264246 10.273194 0.491868
v -28.771687 33.530266 -0.124285
v -28.731544 33.535744 0.660285
v -22.304386 10.267715 -0.292703
v -27.246859 35.939972 0.567533
v -20.305969 10.824070 -0.398833
v -20.265827 10.829550 0.385738
v -27.286999 35.934494 -0.217037
v -24.412634 36.729015 0.417015
v -17.471743 11.613112 -0.549351
v -17.431602 11.618592 0.235220
v -24.452774 36.723534 -0.367555
v -25.640783 40.996742 -0.336617
v -28.475008 40.207703 -0.186100
v -28.434868 40.213181 0.598471
v -25.600643 41.002224 0.447953
v -25.200497 42.116188 -0.563243
v -29.449062 40.933395 -0.337613
v -29.388889 40.941608 0.838475
v -25.140326 42.124397 0.612846
v -25.756752 44.325630 -0.565363
v -30.114473 43.112450 -0.333936
v -30.052755 43.120872 0.872369
v -25.695034 44.334053 0.640942
vt 0.694121 0.308689
vt 0.697658 0.423909
vt 0.824196 0.438764
vt 0.824196 0.308689
vt 0.417562 0.565700
vt 0.440562 0.511064
vt 0.441765 0.184072
vt 0.419169 0.129042
vt 0.694121 0.568839
vt 0.694121 0.698914
vt 0.824196 0.698914
vt 0.824196 0.568839
vt 0.694121 0.817408
vt 0.694121 0.828989
vt 0.824196 0.828989
vt 0.824196 0.817408
vt 0.683719 0.568839
vt 0.683719 0.698914
vt 0.942691 0.568839
vt 0.942691 0.698914
vt 0.954271 0.698914
vt 0.954271 0.568839
vt 0.834599 0.698914
vt 0.834599 0.568839
vt 0.671310 0.568839
vt 0.671310 0.698914
vt 0.694121 0.709317
vt 0.824196 0.709317
vt 0.390235 0.601768
vt 0.392028 0.114286
vt 0.158989 0.505844
vt 0.180674 0.563654
vt 0.182281 0.126997
vt 0.156744 0.169513
vt 0.567583 0.553984
vt 0.564046 0.698914
vt 0.575627 0.698914
vt 0.575627 0.568839
vt 0.930123 0.568839
vt 0.930123 0.698914
vt 0.694121 0.804841
vt 0.824196 0.804841
vt 0.694121 0.781923
vt 0.824196 0.781923
vt 0.907205 0.568839
vt 0.907205 0.698914
vt 0.208083 0.600195
vt 0.209877 0.112713
vt 0.588194 0.698914
vt 0.588194 0.568839
vt 0.847008 0.698914
vt 0.847008 0.568839
vt 0.694121 0.721725
vt 0.824196 0.721725
vt 0.335537 0.640020
vt 0.337474 0.113815
vt 0.646417 0.568839
vt 0.646417 0.698914
vt 0.258166 0.639352
vt 0.256852 0.816584
vt 0.334223 0.817253
vt 0.260103 0.113147
vt 0.871901 0.698914
vt 0.871901 0.568839
vt 0.694121 0.746618
vt 0.824196 0.746618
vt 0.611113 0.698914
vt 0.611113 0.568839
vt 0.611113 0.698914
vt 0.611113 0.698914
vt 0.597121 0.579234
vt 0.610127 0.656524
vt 0.645432 0.656524
vt 0.646417 0.698914
vt 0.694121 0.746618
vt 0.694121 0.781923
vt 0.224133 0.849786
vt 0.223655 0.881298
vt 0.365276 0.881241
vt 0.365485 0.849702
vt 0.657797 0.578149
vt 0.646417 0.698914
vt 0.694121 0.746618
vt 0.694121 0.781923
vt 0.598305 0.564012
vt 0.611113 0.698914
vt 0.646417 0.698914
vt 0.656269 0.562928
vt 0.694121 0.746618
vt 0.694121 0.781923
vn 0.9621 0.2678 -0.0511
vn 0.0511 0.0070 0.9987
vn -0.9621 -0.2678 0.0511
vn -0.0511 -0.0070 -0.9987
vn -0.9980 0.0382 0.0508
vn 0.9865 -0.1564 -0.0494
vn -0.8349 -0.5484 0.0465
vn -0.9674 0.2486 0.0478
vn 0.7640 0.6438 -0.0436
vn 0.7651 -0.6430 -0.0347
vn 0.2678 -0.9634 -0.0070
vn 0.6962 0.7167 -0.0406
vn -0.3289 -0.9441 0.0234
vn -0.8495 0.5261 0.0398
vn 0.4922 0.8699 -0.0313
vn 0.9266 -0.3735 -0.0448
vn 0.0529 0.0006 0.9986
vn -0.6007 -0.7987 0.0363
vn 0.1037 -0.1861 0.9770
vn 0.0036 -0.1998 -0.9798
vn -0.2678 0.9634 0.0070
vn -0.0493 -0.0134 -0.9987
vn 0.9685 0.2438 -0.0513
vn -0.9551 -0.2918 0.0509
usemtl Material.006
s off
f 1/1/1 3/2/1 4/3/1 2/4/1
f 9/5/2 7/6/2 8/7/2 10/8/2
f 7/9/3 5/10/3 6/11/3 8/12/3
f 16/13/4 1/14/4 2/15/4 14/16/4
f 9/17/5 11/18/5 5/10/5 7/9/5
f 15/19/6 14/20/6 2/21/6 4/22/6
f 8/12/7 6/11/7 12/23/7 10/24/7
f 23/25/8 22/26/8 11/18/8 9/17/8
f 5/10/4 11/27/4 12/28/4 6/11/4
f 23/29/2 9/5/2 10/8/2 21/30/2
f 3/31/2 13/32/2 15/33/2 4/34/2
f 3/35/9 1/36/9 16/37/9 13/38/9
f 17/39/10 20/40/10 14/20/10 15/19/10
f 18/41/4 16/13/4 14/16/4 20/42/4
f 32/43/4 18/41/4 20/42/4 30/44/4
f 31/45/11 30/46/11 20/40/11 17/39/11
f 13/32/2 19/47/2 17/48/2 15/33/2
f 13/38/12 16/37/12 18/49/12 19/50/12
f 10/24/13 12/23/13 24/51/13 21/52/13
f 11/27/4 22/53/4 24/54/4 12/28/4
f 25/55/2 23/29/2 21/30/2 27/56/2
f 25/57/14 28/58/14 22/26/14 23/25/14
f 29/59/2 36/60/2 35/61/2 25/55/2
f 29/59/2 25/55/2 27/56/2 31/62/2
f 21/52/11 24/51/11 26/63/11 27/64/11
f 22/53/4 28/65/4 26/66/4 24/54/4
f 19/47/2 29/59/2 31/62/2 17/48/2
f 19/50/15 18/49/15 32/67/15 29/68/15
f 27/64/11 26/63/11 30/46/11 31/45/11
f 28/65/4 32/43/4 30/44/4 26/66/4
f 33/69/16 37/70/16 40/71/16 36/72/16
f 25/57/3 35/73/3 34/74/3 28/58/3
f 32/67/1 33/69/1 36/72/1 29/68/1
f 28/65/4 34/75/4 33/76/4 32/43/4
f 40/77/17 44/78/17 43/79/17 39/80/17
f 35/73/18 39/81/18 38/82/18 34/74/18
f 36/60/19 40/77/19 39/80/19 35/61/19
f 34/75/20 38/83/20 37/84/20 33/76/20
f 44/85/21 41/86/21 42/87/21 43/88/21
f 38/83/22 42/89/22 41/90/22 37/84/22
f 37/70/23 41/86/23 44/85/23 40/71/23
f 39/81/24 43/88/24 42/87/24 38/82/24
