# Blender v2.82 (sub 7) OBJ File: 'bglhodeletra.blend'
# www.blender.org
mtllib bglhodeletra.mtl
o Cube
v 0.348442 7.717314 -1.000000
v 0.348442 8.128425 -0.851610
v 0.400278 7.717314 -0.851610
v 0.348442 2.587465 -0.851610
v 0.348442 2.998576 -1.000000
v 0.400278 2.998576 -0.851610
v 0.400278 7.717314 0.851610
v 0.348442 8.128425 0.851610
v 0.348442 7.717314 1.000000
v 0.400278 2.998576 0.851610
v 0.348442 2.998576 1.000000
v 0.348442 2.587465 0.851610
v -0.246526 7.717314 -1.000000
v -0.298361 7.717314 -0.851610
v -0.246526 8.128425 -0.851610
v -0.298361 2.998576 -0.851610
v -0.246526 2.998576 -1.000000
v -0.246526 2.587465 -0.851610
v -0.298361 7.717314 0.851610
v -0.246526 7.717314 1.000000
v -0.246526 8.128425 0.851610
v -0.246526 2.587465 0.851610
v -0.246526 2.998576 1.000000
v -0.298361 2.998576 0.851610
v 0.600999 7.373218 0.727409
v 0.557613 7.717314 0.851610
v 0.557613 2.998576 0.851610
v 0.600999 3.342672 0.727409
v 0.600999 3.342672 -0.727409
v 0.557613 2.998576 -0.851610
v 0.600999 7.373218 -0.727409
v 0.557613 7.717314 -0.851610
vt 0.143549 0.518549
vt 0.356451 0.518549
vt 0.356451 0.731451
vt 0.143549 0.731451
vt 0.393549 0.018549
vt 0.606451 0.018549
vt 0.606451 0.231451
vt 0.393549 0.231451
vt 0.606451 0.518549
vt 0.606451 0.731451
vt 0.772706 0.809829
vt 0.608826 0.601676
vt 0.393549 0.768549
vt 0.606451 0.768549
vt 0.606451 0.981451
vt 0.393549 0.981451
vt 0.643549 0.518549
vt 0.856451 0.518549
vt 0.856451 0.731451
vt 0.643549 0.731451
vt 0.393549 0.518549
vt 0.393549 0.425921
vt 0.606451 0.481451
vt 0.625000 0.481451
vt 0.606451 0.500000
vt 0.356451 0.500000
vt 0.375000 0.518549
vt 0.625000 0.731451
vt 0.606451 0.750000
vt 0.393549 0.731451
vt 0.393549 0.750000
vt 0.375000 0.731451
vt 0.606451 0.268549
vt 0.606451 0.250000
vt 0.625000 0.268549
vt 0.393549 0.250000
vt 0.375000 0.231451
vt 0.606451 0.000000
vt 0.625000 0.018549
vt 0.143549 0.750000
vt 0.125000 0.731451
vt 0.125000 0.518549
vt 0.143549 0.500000
vt 0.393549 0.481451
vt 0.606451 1.000000
vt 0.393549 1.000000
vt 0.393549 0.268549
vt 0.856451 0.750000
vt 0.643549 0.750000
vt 0.356451 0.750000
vt 0.875000 0.518549
vt 0.875000 0.731451
vt 0.643549 0.500000
vt 0.856451 0.500000
vt 0.559804 0.634073
vt 0.281868 0.057153
vt 0.285780 0.392798
vt 0.119632 0.391221
vt 0.118095 0.055577
vt 0.091728 0.419668
vt 0.089649 0.027673
vt 0.309772 0.028707
vt 0.314226 0.420702
vn 0.0000 -1.0000 0.0000
vn -1.0000 0.0000 0.0000
vn 0.0000 1.0000 0.0000
vn 0.0000 0.0000 1.0000
vn 0.0000 0.0000 -1.0000
vn 0.9374 0.1182 -0.3275
vn 0.9374 -0.1182 -0.3275
vn 0.9374 0.1182 0.3275
vn 0.9374 -0.1182 0.3275
vn -0.9374 0.1182 -0.3275
vn -0.9374 -0.1182 -0.3275
vn -0.9374 0.1182 0.3275
vn -0.9374 -0.1182 0.3275
vn -0.9921 -0.1251 0.0000
vn 0.0000 -0.3395 -0.9406
vn 0.9441 0.0000 -0.3298
vn -0.9441 0.0000 0.3298
vn 0.9441 0.0000 0.3298
vn -0.9441 0.0000 -0.3298
vn 0.0000 0.3395 0.9406
vn 0.9921 0.1251 0.0000
vn 0.0000 -0.3395 0.9406
vn -0.9921 0.1251 0.0000
vn 0.0000 0.3395 -0.9406
vn 0.9921 -0.1251 0.0000
vn 1.0000 0.0000 0.0000
usemtl Material
s off
f 18/1/1 4/2/1 12/3/1 22/4/1
f 24/5/2 19/6/2 14/7/2 16/8/2
f 3/9/3 7/10/3 26/11/3 32/12/3
f 11/13/4 9/14/4 20/15/4 23/16/4
f 2/17/3 15/18/3 21/19/3 8/20/3
f 6/21/5 3/9/5 32/12/5 30/22/5
f 1/23/6 2/24/6 3/25/6
f 4/2/7 5/26/7 6/27/7
f 7/10/8 8/28/8 9/29/8
f 10/30/9 11/31/9 12/32/9
f 13/33/10 14/34/10 15/35/10
f 16/8/11 17/36/11 18/37/11
f 19/6/12 20/38/12 21/39/12
f 22/4/13 23/40/13 24/41/13
f 18/1/14 22/4/14 24/41/14 16/42/14
f 4/2/15 18/1/15 17/43/15 5/26/15
f 3/9/16 6/21/16 5/44/16 1/23/16
f 23/16/17 20/15/17 19/45/17 24/46/17
f 9/14/18 11/13/18 10/30/18 7/10/18
f 13/33/19 17/47/19 16/8/19 14/7/19
f 8/20/20 21/19/20 20/48/20 9/49/20
f 2/17/21 8/20/21 7/10/21 3/9/21
f 22/4/22 12/3/22 11/50/22 23/40/22
f 21/19/23 15/18/23 14/51/23 19/52/23
f 15/18/24 2/17/24 1/53/24 13/54/24
f 12/3/25 4/2/25 6/21/25 10/30/25
f 17/47/5 13/33/5 1/23/5 5/44/5
f 10/30/1 6/21/1 30/22/1 27/55/1
f 29/56/26 31/57/26 25/58/26 28/59/26
f 28/59/18 25/58/18 26/60/18 27/61/18
f 31/57/16 29/56/16 30/62/16 32/63/16
f 29/56/25 28/59/25 27/61/25 30/62/25
f 25/58/21 31/57/21 32/63/21 26/60/21
f 7/10/4 10/30/4 27/55/4 26/11/4
o Cube.001
v 0.348442 10.162004 -5.686813
v 0.348442 10.999092 -5.481421
v 0.400278 10.162004 -5.481421
v 0.348442 -0.283203 -5.481421
v 0.348442 0.553886 -5.686813
v 0.400278 0.553886 -5.481421
v 0.400278 10.162004 -3.123929
v 0.348442 10.999092 -3.123929
v 0.348442 10.162004 -2.918537
v 0.400278 0.553886 -3.123929
v 0.348442 0.553886 -2.918537
v 0.348442 -0.283203 -3.123929
v -0.246526 10.162004 -5.686813
v -0.298361 10.162004 -5.481421
v -0.246526 10.999092 -5.481421
v -0.298361 0.553886 -5.481421
v -0.246526 0.553886 -5.686813
v -0.246526 -0.283203 -5.481421
v -0.298361 10.162004 -3.123929
v -0.246526 10.162004 -2.918537
v -0.246526 10.999092 -3.123929
v -0.246526 -0.283203 -3.123929
v -0.246526 0.553886 -2.918537
v -0.298361 0.553886 -3.123929
v 0.600999 9.461369 -3.295840
v 0.557613 10.162004 -3.123929
v 0.557613 0.553886 -3.123929
v 0.600999 1.254522 -3.295840
v 0.600999 1.254522 -5.309510
v 0.557613 0.553886 -5.481421
v 0.600999 9.461369 -5.309510
v 0.557613 10.162004 -5.481421
vt 0.143549 0.518549
vt 0.356451 0.518549
vt 0.356451 0.731451
vt 0.143549 0.731451
vt 0.393549 0.018549
vt 0.606451 0.018549
vt 0.606451 0.231451
vt 0.393549 0.231451
vt 0.606451 0.518549
vt 0.606451 0.731451
vt 0.772706 0.809829
vt 0.608826 0.601676
vt 0.393549 0.768549
vt 0.606451 0.768549
vt 0.606451 0.981451
vt 0.393549 0.981451
vt 0.643549 0.518549
vt 0.856451 0.518549
vt 0.856451 0.731451
vt 0.643549 0.731451
vt 0.393549 0.518549
vt 0.393549 0.425921
vt 0.606451 0.481451
vt 0.625000 0.481451
vt 0.606451 0.500000
vt 0.356451 0.500000
vt 0.375000 0.518549
vt 0.625000 0.731451
vt 0.606451 0.750000
vt 0.393549 0.731451
vt 0.393549 0.750000
vt 0.375000 0.731451
vt 0.606451 0.268549
vt 0.606451 0.250000
vt 0.625000 0.268549
vt 0.393549 0.250000
vt 0.375000 0.231451
vt 0.606451 0.000000
vt 0.625000 0.018549
vt 0.143549 0.750000
vt 0.125000 0.731451
vt 0.125000 0.518549
vt 0.143549 0.500000
vt 0.393549 0.481451
vt 0.606451 1.000000
vt 0.393549 1.000000
vt 0.393549 0.268549
vt 0.856451 0.750000
vt 0.643549 0.750000
vt 0.356451 0.750000
vt 0.875000 0.518549
vt 0.875000 0.731451
vt 0.643549 0.500000
vt 0.856451 0.500000
vt 0.559804 0.634073
vt 0.281868 0.057153
vt 0.285780 0.392798
vt 0.119632 0.391221
vt 0.118095 0.055577
vt 0.091728 0.419668
vt 0.089649 0.027673
vt 0.309772 0.028707
vt 0.314226 0.420702
vn 0.0000 -1.0000 0.0000
vn -1.0000 0.0000 0.0000
vn 0.0000 1.0000 0.0000
vn 0.0000 0.0000 1.0000
vn 0.0000 0.0000 -1.0000
vn 0.9679 0.0599 -0.2443
vn 0.9679 -0.0599 -0.2443
vn 0.9679 0.0599 0.2443
vn 0.9679 -0.0599 0.2443
vn -0.9679 0.0599 -0.2443
vn -0.9679 -0.0599 -0.2443
vn -0.9679 0.0599 0.2443
vn -0.9679 -0.0599 0.2443
vn -0.9981 -0.0618 0.0000
vn 0.0000 -0.2383 -0.9712
vn 0.9696 0.0000 -0.2447
vn -0.9696 0.0000 0.2447
vn 0.9696 0.0000 0.2447
vn -0.9696 0.0000 -0.2447
vn 0.0000 0.2383 0.9712
vn 0.9981 0.0618 0.0000
vn 0.0000 -0.2383 0.9712
vn -0.9981 0.0618 0.0000
vn 0.0000 0.2383 -0.9712
vn 0.9981 -0.0618 0.0000
vn 1.0000 0.0000 0.0000
usemtl Material.001
s off
f 50/64/27 36/65/27 44/66/27 54/67/27
f 56/68/28 51/69/28 46/70/28 48/71/28
f 35/72/29 39/73/29 58/74/29 64/75/29
f 43/76/30 41/77/30 52/78/30 55/79/30
f 34/80/29 47/81/29 53/82/29 40/83/29
f 38/84/31 35/72/31 64/75/31 62/85/31
f 33/86/32 34/87/32 35/88/32
f 36/65/33 37/89/33 38/90/33
f 39/73/34 40/91/34 41/92/34
f 42/93/35 43/94/35 44/95/35
f 45/96/36 46/97/36 47/98/36
f 48/71/37 49/99/37 50/100/37
f 51/69/38 52/101/38 53/102/38
f 54/67/39 55/103/39 56/104/39
f 50/64/40 54/67/40 56/104/40 48/105/40
f 36/65/41 50/64/41 49/106/41 37/89/41
f 35/72/42 38/84/42 37/107/42 33/86/42
f 55/79/43 52/78/43 51/108/43 56/109/43
f 41/77/44 43/76/44 42/93/44 39/73/44
f 45/96/45 49/110/45 48/71/45 46/70/45
f 40/83/46 53/82/46 52/111/46 41/112/46
f 34/80/47 40/83/47 39/73/47 35/72/47
f 54/67/48 44/66/48 43/113/48 55/103/48
f 53/82/49 47/81/49 46/114/49 51/115/49
f 47/81/50 34/80/50 33/116/50 45/117/50
f 44/66/51 36/65/51 38/84/51 42/93/51
f 49/110/31 45/96/31 33/86/31 37/107/31
f 42/93/27 38/84/27 62/85/27 59/118/27
f 61/119/52 63/120/52 57/121/52 60/122/52
f 60/122/44 57/121/44 58/123/44 59/124/44
f 63/120/42 61/119/42 62/125/42 64/126/42
f 61/119/51 60/122/51 59/124/51 62/125/51
f 57/121/47 63/120/47 64/126/47 58/123/47
f 39/73/30 42/93/30 59/118/30 58/74/30
