# Blender v2.82 (sub 7) OBJ File: 'spawn.blend'
# www.blender.org
mtllib spawnAberto.mtl
o Cube.001_Cube.002
v 23.078478 0.237082 2.828929
v 23.078478 21.111897 2.828929
v 23.078478 0.237082 -4.436654
v 23.078478 21.111897 -4.436654
v 59.896736 0.237082 2.828929
v 59.896736 21.111897 2.828929
v 59.896736 0.237082 -4.436654
v 59.896736 21.111897 -4.436654
v 23.078478 1.306125 2.828929
v 23.078478 1.306125 -4.436654
v 59.896736 1.306125 -4.436654
v 59.896736 1.306125 2.828929
v 23.078478 20.461205 2.828929
v 23.078478 20.461205 -4.436654
v 59.896736 20.461205 -4.436654
v 59.896736 20.461205 2.828929
v 30.224449 0.237082 -4.436654
v 30.224449 21.111897 -4.436654
v 30.224449 0.237082 2.828929
v 30.224449 21.111897 2.828929
v 30.224449 1.306125 2.828929
v 30.224449 1.306125 -4.436654
v 30.224449 20.461205 2.828929
v 30.224449 20.461205 -4.436654
v 53.314438 21.111897 -4.436654
v 53.314438 0.237082 2.828929
v 53.314438 1.306125 -4.436654
v 53.314438 20.461205 -4.436654
v 53.314438 0.237082 -4.436654
v 53.314438 21.111897 2.828929
v 53.314438 1.306125 2.828929
v 53.314438 20.461205 2.828929
v 23.078478 15.553967 -4.436654
v 59.896736 15.553967 -4.436654
v 59.896736 15.553967 2.828929
v 23.078478 15.553967 2.828929
v 30.224449 15.553967 -4.436654
v 30.224449 15.553967 2.828929
v 53.314438 15.553967 2.828929
v 53.314438 15.553967 -4.436654
v 53.314438 14.522135 2.828929
v 30.224449 14.522135 2.828929
v 51.818344 1.306125 2.828929
v 51.818348 14.522135 2.828929
v 51.818344 15.553967 2.828929
v 31.514843 1.306125 2.828929
v 31.514843 15.553967 2.828929
v 31.514845 14.522135 2.828929
v 31.514845 14.522135 -3.362646
v 51.818348 14.522135 -3.362646
v 51.818344 1.306125 -3.362646
v 31.514843 1.306125 -3.362646
v 22.250109 20.568708 3.650732
v 22.250109 21.223238 3.650732
v 22.250109 21.223238 -5.258457
v 53.836281 21.223238 -5.258457
v 60.712517 21.223238 -5.258457
v 60.712517 21.223238 3.650732
v 29.715191 21.223238 3.650732
v 22.250109 20.568708 -5.258457
v 60.712517 20.568708 -5.258457
v 60.712517 20.568708 3.650732
v 29.715191 20.568708 3.650732
v 53.836281 20.568708 -5.258457
v 29.715191 21.223238 -5.258457
v 53.836281 21.223238 3.650732
v 53.836281 20.568708 3.650732
v 29.715191 20.568708 -5.258457
v 54.701797 15.553967 2.828929
v 54.688000 20.461205 2.828929
v 54.744862 0.237082 2.828929
v 54.741856 1.306125 2.828929
v 28.715530 15.553967 2.828929
v 28.715530 20.461205 2.828929
v 28.715530 0.237082 2.828929
v 28.715530 1.306125 2.828929
v 28.715530 0.237082 3.221211
v 30.224449 0.237082 3.221211
v 30.224449 14.522135 3.221211
v 30.224449 1.306125 3.221211
v 54.741856 1.306125 3.221211
v 53.314438 1.306125 3.221211
v 54.688000 20.461205 3.221211
v 53.314438 20.461205 3.221211
v 53.314438 0.237082 3.221211
v 53.314438 14.522135 3.221211
v 30.224449 20.461205 3.221211
v 30.224449 15.553967 3.221211
v 53.314438 15.553967 3.221211
v 54.701797 15.553967 3.221211
v 54.744862 0.237082 3.221211
v 28.715530 15.553967 3.221211
v 28.715530 20.461205 3.221211
v 28.715530 1.306125 3.221211
v 53.314438 20.461205 2.396014
v 30.224449 20.461205 2.396014
v 30.224449 15.553967 2.396014
v 53.314438 15.553967 2.396014
v 31.514843 15.553967 2.396014
v 51.818344 15.553967 2.396014
v 58.801720 20.461205 2.828929
v 58.801723 0.237082 2.828929
v 58.801723 1.306125 2.828929
v 58.801723 15.553967 2.828929
v 24.305721 15.553967 2.828929
v 24.305721 20.461205 2.828929
v 24.305721 1.306125 2.828929
v 24.305721 0.237082 2.828929
v 59.896736 1.306125 3.243524
v 59.896736 0.237082 3.243524
v 58.801723 0.237082 3.243524
v 23.078478 0.237082 3.243524
v 23.078478 1.306125 3.243524
v 59.896736 15.553967 3.243524
v 24.305721 1.306125 3.243524
v 23.078478 15.553967 3.243524
v 23.078478 20.461205 3.243524
v 24.305721 20.461205 3.243524
v 59.896736 20.461205 3.243524
v 24.305721 15.553967 3.243524
v 58.801720 20.461205 3.243524
v 58.801723 1.306125 3.243524
v 58.801723 15.553967 3.243524
v 24.305721 0.237082 3.243524
v 31.514843 1.306125 1.193816
v 31.514845 14.522135 1.193816
v 51.818348 14.522135 1.193816
v 51.818344 1.306125 1.193816
v 31.514845 14.522135 1.772122
v 51.818348 14.522135 1.772122
v 31.514843 1.306125 1.772122
v 51.818344 1.306125 1.772122
v 58.801723 15.553967 3.731920
v 57.995117 16.011288 3.891093
v 55.507118 16.011288 3.891093
v 54.701797 15.553967 3.731920
v 57.995117 20.003885 3.891093
v 58.801720 20.461205 3.731920
v 54.688000 20.461205 3.731920
v 55.495892 20.003885 3.891093
v 27.908924 16.011288 3.891093
v 28.715530 15.553967 3.731920
v 28.715530 20.461205 3.731920
v 27.908924 20.003885 3.891093
v 25.112326 16.011288 3.891093
v 24.305721 15.553967 3.731920
v 24.305721 20.461205 3.731920
v 25.112326 20.003885 3.891093
v 31.514845 11.776064 1.772122
v 31.514845 11.776064 1.193816
v 51.818348 11.776064 1.193816
v 51.818348 11.776064 1.772122
v 38.213646 10.530074 1.467143
v 38.183666 10.530074 0.888837
v 45.356033 10.530074 1.467143
v 45.418896 10.530074 0.888837
vt 0.826478 0.500000
vt 0.669695 0.500000
vt 0.669695 0.500000
vt 0.826478 0.500000
vt 0.875000 0.500000
vt 0.875000 0.500000
vt 0.617207 0.794695
vt 0.617207 0.785368
vt 0.617207 0.757435
vt 0.617207 0.750000
vt 0.617207 0.750000
vt 0.617207 0.794695
vt 0.617207 0.298522
vt 0.617207 0.250000
vt 0.617207 0.250000
vt 0.617207 0.298522
vt 0.330305 0.500000
vt 0.375000 0.500000
vt 0.375000 0.750000
vt 0.367565 0.750000
vt 0.340018 0.750000
vt 0.330306 0.750000
vt 0.875000 0.750000
vt 0.826478 0.750000
vt 0.375000 0.784982
vt 0.387803 0.785002
vt 0.387803 0.785002
vt 0.375000 0.784982
vt 0.387803 0.500000
vt 0.387803 0.750000
vt 0.375000 0.455306
vt 0.387803 0.455306
vt 0.375000 0.000000
vt 0.387803 0.000000
vt 0.387803 0.250000
vt 0.375000 0.250000
vt 0.558437 0.794695
vt 0.558437 0.794695
vt 0.617207 0.794695
vt 0.558437 0.500000
vt 0.617207 0.500000
vt 0.558437 0.750000
vt 0.558437 0.455306
vt 0.617207 0.455306
vt 0.558437 0.000000
vt 0.617207 0.000000
vt 0.558437 0.250000
vt 0.558437 0.298522
vt 0.558437 0.942716
vt 0.558437 0.804853
vt 0.558437 0.804853
vt 0.558437 0.942716
vt 0.387803 0.298522
vt 0.375000 0.298522
vt 0.375000 0.794694
vt 0.387803 0.794695
vt 0.387803 0.804853
vt 0.387803 0.942716
vt 0.387803 0.951478
vt 0.375000 0.951478
vt 0.669695 0.750000
vt 0.125000 0.500000
vt 0.173522 0.500000
vt 0.173522 0.750000
vt 0.163276 0.750000
vt 0.133333 0.750000
vt 0.125000 0.750000
vt 0.625000 0.500000
vt 0.625000 0.500000
vt 0.617207 0.000000
vt 0.625000 0.750000
vt 0.669695 0.750000
vt 0.625000 0.750000
vt 0.558437 0.750000
vt 0.387803 0.750000
vt 0.617207 0.757435
vt 0.617207 0.750000
vt 0.617207 0.951478
vt 0.617207 0.951478
vt 0.558437 0.000000
vt 0.617207 0.000000
vt 0.546080 0.794695
vt 0.546080 0.804853
vt 0.387803 0.961724
vt 0.375000 0.961724
vt 0.375000 0.961724
vt 0.387803 0.961724
vt 0.546080 0.951478
vt 0.546080 0.942716
vt 0.558437 0.951478
vt 0.614648 0.502263
vt 0.614356 0.758066
vt 0.382489 0.757612
vt 0.382781 0.501810
vt 0.610084 0.500555
vt 0.608084 0.758616
vt 0.381908 0.755749
vt 0.383908 0.497688
vt 0.407847 0.519234
vt 0.616407 0.519234
vt 0.616407 0.709798
vt 0.407847 0.709798
vt 0.609888 0.502114
vt 0.608503 0.759660
vt 0.385252 0.757762
vt 0.386638 0.500216
vt 0.625000 0.000000
vt 0.625000 0.250000
vt 0.617207 0.455306
vt 0.625000 0.455305
vt 0.617207 0.500000
vt 0.625000 0.951478
vt 0.625000 1.000000
vt 0.617207 1.000000
vt 0.625000 0.794695
vt 0.625000 0.298522
vt 0.826478 0.750000
vt 0.617207 1.000000
vt 0.617207 0.991667
vt 0.617207 0.961724
vt 0.875000 0.750000
vt 0.200583 0.776152
vt 0.200435 0.786885
vt 0.191846 0.786767
vt 0.191994 0.776034
vt 0.617207 0.785368
vt 0.617207 0.951478
vt 0.558437 0.951478
vt 0.340018 0.750000
vt 0.330306 0.750000
vt 0.387803 0.991667
vt 0.375000 0.991667
vt 0.065972 0.770776
vt 0.065972 0.978879
vt 0.020521 0.978879
vt 0.020521 0.770776
vt 0.387803 0.942716
vt 0.546080 0.942716
vt 0.198469 0.929922
vt 0.197791 0.979187
vt 0.189203 0.979069
vt 0.189880 0.929804
vt 0.198611 0.919563
vt 0.293071 0.775302
vt 0.292906 0.786034
vt 0.284781 0.785922
vt 0.284929 0.775190
vt 0.290712 0.929068
vt 0.282815 0.928960
vt 0.282957 0.918601
vt 0.289956 0.978332
vt 0.282138 0.978225
vt 0.546080 0.951478
vt 0.387803 0.951478
vt 0.558437 0.961724
vt 0.558437 0.961724
vt 0.173522 0.750000
vt 0.163276 0.750000
vt 0.558437 0.785274
vt 0.558437 0.785274
vt 0.617207 0.961724
vt 0.375000 0.951478
vt 0.546080 0.794695
vt 0.375000 0.794694
vt 0.387803 0.794695
vt 0.294681 0.378370
vt 0.294681 0.457117
vt 0.033214 0.457117
vt 0.033214 0.378370
vt 0.047826 0.378370
vt 0.277740 0.378370
vt 0.558437 0.794695
vt 0.558437 0.951478
vt 0.617207 0.794695
vt 0.617207 0.951478
vt 0.322395 0.775705
vt 0.322247 0.786437
vt 0.316015 0.786351
vt 0.316162 0.775619
vt 0.375000 0.757435
vt 0.387803 0.757435
vt 0.108268 0.770776
vt 0.108268 0.978879
vt 0.066010 0.978879
vt 0.066423 0.770776
vt 0.558437 0.785274
vt 0.617207 0.785368
vt 0.375000 0.000000
vt 0.387803 0.000000
vt 0.558437 0.757435
vt 0.558437 0.757435
vt 0.558437 0.991667
vt 0.558437 0.991667
vt 0.387803 0.991667
vt 0.320281 0.929475
vt 0.319604 0.978740
vt 0.313371 0.978654
vt 0.314048 0.929389
vt 0.164780 0.929459
vt 0.164102 0.978724
vt 0.157117 0.978628
vt 0.157794 0.929363
vt 0.166893 0.775689
vt 0.166746 0.786422
vt 0.159761 0.786326
vt 0.159908 0.775593
vt 0.133333 0.750000
vt 0.125000 0.750000
vt 0.375000 0.750000
vt 0.617207 1.000000
vt 0.617207 0.991667
vt 0.367565 0.750000
vt 0.375000 0.757435
vt 0.387803 0.757435
vt 0.375000 0.991667
vt 0.558437 0.961724
vt 0.558437 0.991667
vt 0.617207 0.757435
vt 0.558437 0.757435
vt 0.617207 0.991667
vt 0.617207 0.961724
vt 0.689560 0.373799
vt 0.790874 0.373800
vt 0.790873 0.444518
vt 0.689560 0.444517
vt 0.690107 0.372894
vt 0.690107 0.442754
vt 0.678627 0.465367
vt 0.678627 0.350245
vt 0.801806 0.350245
vt 0.801806 0.465754
vt 0.790327 0.443070
vt 0.790327 0.372894
vt 0.677955 0.353402
vt 0.802478 0.353402
vt 0.677955 0.464914
vt 0.802478 0.464914
vt 0.546080 0.804853
vt 0.387803 0.804853
vt 0.387803 0.942716
vt 0.546080 0.942716
vt 0.546080 0.804853
vt 0.546080 0.804853
vt 0.546080 0.804853
vt 0.387803 0.804853
vt 0.546080 0.849873
vt 0.546080 0.849446
vt 0.546080 0.942716
vt 0.546080 0.942716
vt 0.974569 0.020569
vt 0.974569 0.453870
vt 0.891536 0.455525
vt 0.850964 0.310910
vt 0.850964 0.158483
vt 0.891538 0.018855
vt 0.972025 0.441959
vt 0.972025 0.032609
vt 0.893584 0.030973
vt 0.855252 0.161631
vt 0.855252 0.307505
vt 0.893582 0.443529
vt 0.546080 0.898574
vt 0.546080 0.898371
vt 0.501244 0.574005
vt 0.501244 0.574005
vt 0.501244 0.574005
vt 0.501244 0.574005
vt 0.501244 0.574005
vt 0.501244 0.574005
vt 0.501244 0.574005
vt 0.501244 0.574005
vn 0.0000 0.9909 0.1343
vn 0.0000 -0.9916 0.1297
vn 0.0000 -0.9916 -0.1297
vn 0.0000 -1.0000 -0.0000
vn 0.0000 1.0000 0.0000
vn 1.0000 0.0028 0.0000
vn 1.0000 0.0000 0.0000
vn 0.0000 0.0000 -1.0000
vn -1.0000 0.0000 0.0000
vn 0.0000 0.0000 1.0000
vn -0.1287 -0.9917 0.0000
vn 0.0000 0.9909 -0.1343
vn -0.1352 0.9908 0.0000
vn 0.1332 0.9911 0.0000
vn 0.1307 -0.9914 0.0000
vn -1.0000 -0.0028 0.0000
vn 0.0000 -0.3287 0.9444
vn 0.0000 0.3287 0.9444
vn -0.1936 -0.0005 0.9811
vn 0.1936 0.0000 0.9811
vn -0.1936 0.0000 0.9811
vn 0.1897 -0.9818 0.0103
vn 0.0000 -0.0574 0.9984
vn 0.0000 0.0575 -0.9983
vn -0.1831 -0.9831 0.0047
vn -0.5832 0.0000 -0.8124
vn 0.0000 -0.7211 -0.6928
vn 0.6397 0.0000 -0.7686
usemtl Material.002
s off
f 18/1/1 25/2/1 56/3/1 65/4/1
f 4/5/1 18/1/1 65/4/1 55/6/1
f 32/7/2 70/8/2 101/9/2 16/10/2 62/11/2 67/12/2
f 24/13/3 14/14/3 60/15/3 68/16/3
f 29/17/4 7/18/4 5/19/4 102/20/4 71/21/4 26/22/4
f 18/1/5 4/5/5 2/23/5 20/24/5
f 71/25/6 72/26/6 81/27/6 91/28/6
f 7/18/7 11/29/7 12/30/7 5/19/7
f 29/31/8 27/32/8 11/29/8 7/18/8
f 1/33/9 9/34/9 10/35/9 3/36/9
f 32/7/9 39/37/9 89/38/9 84/39/9
f 34/40/7 15/41/7 16/10/7 35/42/7
f 40/43/8 28/44/8 15/41/8 34/40/8
f 36/45/9 13/46/9 14/14/9 33/47/9
f 33/47/8 14/14/8 24/13/8 37/48/8
f 47/49/5 45/50/5 100/51/5 99/52/5
f 3/36/8 10/35/8 22/53/8 17/54/8
f 26/55/10 31/56/10 43/57/10 46/58/10 21/59/10 19/60/10
f 25/2/5 18/1/5 20/24/5 30/61/5
f 3/62/4 17/63/4 19/64/4 75/65/4 108/66/4 1/67/4
f 25/2/1 8/68/1 57/69/1 56/3/1
f 14/14/11 13/46/11 53/70/11 60/15/11
f 6/71/12 30/61/12 66/72/12 58/73/12
f 8/68/5 25/2/5 30/61/5 6/71/5
f 12/30/7 35/42/7 114/74/7 109/75/7
f 16/10/5 101/9/5 121/76/5 119/77/5
f 37/48/8 24/13/8 28/44/8 40/43/8
f 17/54/8 22/53/8 27/32/8 29/31/8
f 17/63/4 29/17/4 26/22/4 19/64/4
f 23/78/2 32/7/2 67/12/2 63/79/2
f 13/46/9 36/45/9 116/80/9 117/81/9
f 31/56/10 41/82/10 44/83/10 43/57/10
f 10/35/8 33/47/8 37/48/8 22/53/8
f 9/34/9 36/45/9 33/47/9 10/35/9
f 27/32/8 40/43/8 34/40/8 11/29/8
f 11/29/7 34/40/7 35/42/7 12/30/7
f 76/84/9 75/85/9 77/86/9 94/87/9
f 42/88/10 48/89/10 47/49/10 38/90/10
f 125/91/5 128/92/5 51/93/5 52/94/5
f 45/50/10 44/83/10 41/82/10 39/37/10
f 46/58/10 48/89/10 42/88/10 21/59/10
f 47/49/10 48/89/10 44/83/10 45/50/10
f 128/95/9 127/96/9 50/97/9 51/98/9
f 127/99/4 126/100/4 49/101/4 50/102/4
f 126/103/7 125/104/7 52/105/7 49/106/7
f 53/70/9 54/107/9 55/108/9 60/15/9
f 64/109/8 56/110/8 57/69/8 61/111/8
f 61/111/7 57/69/7 58/73/7 62/11/7
f 63/79/10 59/112/10 54/113/10 53/114/10
f 67/12/10 66/115/10 59/112/10 63/79/10
f 60/15/8 55/108/8 65/116/8 68/16/8
f 62/11/10 58/73/10 66/115/10 67/12/10
f 68/16/8 65/116/8 56/110/8 64/109/8
f 8/68/13 6/71/13 58/73/13 57/69/13
f 30/61/12 20/24/12 59/117/12 66/72/12
f 13/118/2 106/119/2 74/120/2 23/78/2 63/79/2 53/114/2
f 2/23/14 4/5/14 55/6/14 54/121/14
f 28/44/3 24/13/3 68/16/3 64/109/3
f 16/10/15 15/41/15 61/111/15 62/11/15
f 20/24/12 2/23/12 54/121/12 59/117/12
f 15/41/3 28/44/3 64/109/3 61/111/3
f 78/122/10 80/123/10 94/124/10 77/125/10
f 70/8/5 32/7/5 84/39/5 83/126/5
f 38/90/7 23/78/7 87/127/7 88/128/7
f 26/22/4 71/21/4 91/129/4 85/130/4
f 75/85/10 76/84/10 107/131/10 108/132/10
f 76/133/10 73/134/10 105/135/10 107/136/10
f 48/89/7 46/58/7 131/137/7 129/138/7
f 88/139/10 87/140/10 93/141/10 92/142/10
f 80/123/10 79/143/10 88/139/10 92/142/10 94/124/10
f 91/144/10 81/145/10 82/146/10 85/147/10
f 81/145/10 90/148/10 89/149/10 86/150/10 82/146/10
f 90/148/10 83/151/10 84/152/10 89/149/10
f 21/59/7 42/88/7 79/153/7 80/154/7
f 73/155/9 76/84/9 94/87/9 92/156/9
f 75/65/4 19/64/4 78/157/4 77/158/4
f 72/26/6 69/159/6 90/160/6 81/27/6
f 74/120/9 73/155/9 92/156/9 93/161/9
f 69/159/6 70/8/6 83/126/6 90/160/6
f 19/60/7 21/59/7 80/154/7 78/162/7
f 39/37/9 41/82/9 86/163/9 89/38/9
f 31/56/9 26/55/9 85/164/9 82/165/9
f 42/88/7 38/90/7 88/128/7 79/153/7
f 41/82/9 31/56/9 82/165/9 86/163/9
f 23/78/5 74/120/5 93/161/5 87/127/5
f 98/166/10 95/167/10 96/168/10 97/169/10 99/170/10 100/171/10
f 45/50/5 39/37/5 98/172/5 100/51/5
f 38/90/5 47/49/5 99/52/5 97/173/5
f 39/37/9 32/7/9 95/174/9 98/172/9
f 32/7/4 23/78/4 96/175/4 95/174/4
f 23/78/7 38/90/7 97/173/7 96/175/7
f 110/176/10 109/177/10 122/178/10 111/179/10
f 102/180/10 103/181/10 72/26/10 71/25/10
f 103/182/10 104/183/10 69/184/10 72/185/10
f 70/8/16 69/159/16 136/186/16 139/187/16
f 9/34/9 1/33/9 112/188/9 113/189/9
f 101/9/9 104/190/9 123/191/9 121/76/9
f 107/131/7 105/192/7 120/193/7 115/194/7
f 114/195/10 119/196/10 121/197/10 123/198/10
f 109/177/10 114/195/10 123/198/10 122/178/10
f 120/199/10 118/200/10 117/201/10 116/202/10
f 124/203/10 115/204/10 113/205/10 112/206/10
f 115/204/10 120/199/10 116/202/10 113/205/10
f 1/67/4 108/66/4 124/207/4 112/208/4
f 5/19/7 12/30/7 109/75/7 110/209/7
f 106/119/5 13/118/5 117/210/5 118/211/5
f 105/192/7 106/119/7 118/211/7 120/193/7
f 102/20/4 5/19/4 110/209/4 111/212/4
f 103/181/9 102/180/9 111/213/9 122/214/9
f 35/42/7 16/10/7 119/77/7 114/74/7
f 108/132/7 107/131/7 115/194/7 124/215/7
f 104/190/9 103/181/9 122/214/9 123/191/9
f 36/45/9 9/34/9 113/189/9 116/80/9
f 105/192/4 73/155/4 142/216/4 146/217/4
f 104/190/7 101/9/7 138/218/7 133/219/7
f 74/120/5 106/119/5 147/220/5 143/221/5
f 73/155/7 74/120/7 143/221/7 142/216/7
f 101/9/5 70/8/5 139/187/5 138/218/5
f 106/119/9 105/192/9 146/217/9 147/220/9
f 69/159/4 104/190/4 133/219/4 136/186/4
f 141/222/10 144/223/10 148/224/10 145/225/10
f 134/226/17 135/227/17 136/228/17 133/229/17
f 138/230/18 139/231/18 140/232/18 137/233/18
f 135/227/19 140/232/19 139/231/19 136/228/19
f 142/234/20 143/235/20 144/223/20 141/222/20
f 133/229/20 138/230/20 137/233/20 134/226/20
f 141/222/17 145/225/17 146/236/17 142/234/17
f 143/235/18 147/237/18 148/224/18 144/223/18
f 145/225/21 148/224/21 147/237/21 146/236/21
f 134/226/10 137/233/10 140/232/10 135/227/10
f 44/83/4 48/89/4 129/138/4 130/238/4
f 43/57/9 44/83/9 130/238/9 132/239/9
f 46/58/5 43/57/5 132/239/5 131/137/5
f 129/138/7 131/137/7 125/240/7 126/241/7
f 127/242/7 130/238/7 152/243/7 151/244/7
f 132/239/9 130/238/9 127/242/9 128/245/9
f 131/137/5 132/239/5 128/245/5 125/240/5
f 152/243/22 155/246/22 156/247/22 151/244/22
f 129/138/9 126/241/9 150/248/9 149/249/9
f 130/250/23 129/251/23 149/252/23 153/253/23 155/254/23 152/255/23
f 126/256/24 127/257/24 151/258/24 156/259/24 154/260/24 150/261/24
f 154/262/25 153/263/25 149/249/25 150/248/25
f 156/247/4 155/246/4 153/263/4 154/262/4
f 51/264/26 50/265/26 27/266/26
f 51/264/5 27/266/5 22/267/5
f 37/268/27 40/269/27 50/265/27
f 52/270/5 51/264/5 22/267/5
f 49/271/28 52/270/28 22/267/28
f 49/271/28 22/267/28 37/268/28
f 49/271/27 37/268/27 50/265/27
f 50/265/26 40/269/26 27/266/26
